<?xml version="1.0" standalone="no"?><!DOCTYPE svg PUBLIC "-//W3C//DTD SVG 1.1//EN" "http://www.w3.org/Graphics/SVG/1.1/DTD/svg11.dtd"><svg class="icon" height="512" viewBox="0 0 1024 1024" version="1.1" xmlns="http://www.w3.org/2000/svg"><path d="M710.71744 437.8368a29.68064 29.68064 0 0 0-41.92256 0l-156.73856 156.86144-156.8512-156.86144a29.68576 29.68576 0 0 0-42.02496 0c-11.53536 11.55584-11.53536 30.36672 0 41.856l177.80736 177.82272a29.57312 29.57312 0 0 0 20.99712 8.80128 29.9776 29.9776 0 0 0 21.0944-8.73984l177.6384-177.88416c11.55072-11.48928 11.55072-30.2336 0-41.856z m199.5008 74.22464c0-219.81696-178.27328-398.2592-398.27456-398.32576-219.79136 0-398.16704 178.44736-398.16704 398.32576 0 219.9552 178.37568 398.19776 398.16704 398.19776 220.00128 0 398.27456-178.23744 398.27456-398.19776z m-752.18432 3.69664c0-195.69664 158.34112-354.11968 353.90976-354.11968 195.57376 0 353.86368 158.41792 353.86368 354.11968 0 195.50208-158.32064 353.85856-353.86368 353.85856-195.51744 0.00512-353.90976-158.41792-353.90976-353.85856z" fill="#3FA9F5" /></svg>