<?xml version="1.0" standalone="no"?><!DOCTYPE svg PUBLIC "-//W3C//DTD SVG 1.1//EN" "http://www.w3.org/Graphics/SVG/1.1/DTD/svg11.dtd"><svg class="icon" height="512" viewBox="0 0 1024 1024" version="1.1" xmlns="http://www.w3.org/2000/svg"><path d="M920.950508 62.71946 103.40458 62.71946c-56.435337 0-102.184287 45.74895-102.184287 102.184287l0 693.187619c0 56.435337 45.74895 102.183264 102.184287 102.183264l817.544905 0c56.434314 0 102.184287-45.747927 102.184287-102.183264l0-693.187619C1023.134795 108.467387 977.384821 62.71946 920.950508 62.71946zM475.357963 228.522694c0-19.559475 15.788591-35.470863 35.303041-35.470863 19.516496 0 35.305087 15.911388 35.305087 35.470863l0 244.642836c0 19.557428-15.788591 35.467793-35.305087 35.467793-19.514449 0-35.303041-15.910365-35.303041-35.467793L475.357963 228.522694zM742.539118 696.704722c-27.226085 47.039339-68.185962 84.912925-115.330702 106.908892-37.032428 17.282618-76.091002 25.89681-116.075669 25.89681l-0.002047 0c-17.257036 0-34.632775-1.534959-51.647287-4.858658-51.671846-10.096962-101.05251-37.250392-139.04173-76.604702-38.304398-39.676651-63.455217-90.110297-70.821999-142.075833-4.596691-32.426527-4.119831-62.642712 1.456165-92.416829 5.215792-27.863604 15.495926-55.741535 29.724998-80.640622 28.548196-49.954739 72.520687-89.633437 123.81391-111.73685l0.316202-0.132006c5.14723-2.792603 10.914584-4.26514 16.709567-4.26514 1.274016 0 2.582825 0.075725 3.892657 0.225127 1.757017 0.171915 3.66139 0.528026 5.539156 1.044796 8.820899 2.426259 16.546861 8.364505 21.190625 16.292058 0.887206 1.51347 1.665942 3.15997 2.316765 4.895497 1.681292 4.178159 2.532683 8.553817 2.532683 13.014408 0 2.943029-0.375553 5.881964-1.11745 8.735965-2.298346 10.440793-8.607028 18.574031-17.328667 22.331611l-0.375553 0.167822c-1.51347 0.817622-3.102664 1.530866-4.737908 2.12336-7.352455 3.361561-13.948687 6.78452-20.155039 10.461259-6.027274 3.567245-11.316743 6.992251-16.172331 10.467399-0.595564 0.426719-2.12336 1.494027-3.37998 2.446725-0.896416 0.677429-2.396583 1.233084-2.396583 1.686409l0 0.002047c0 1.108241-2.619664 2.224668-3.962242 3.370771-9.719362 8.3072-18.422581 17.086144-25.985838 26.093285-1.269923 1.509377-2.501984 3.019777-3.727904 4.560876l-0.159636 0.223081c-1.183965 1.583055-2.828418 3.811816-4.389984 6.065136-3.707438 5.352915-6.839779 10.252505-9.585309 14.983249-3.535523 6.092765-6.488785 11.688203-9.030677 17.10968-0.306992 0.653893-0.99056 2.219551-1.617847 3.64911-0.406253 0.928139-0.808412 1.846044-1.251503 2.707668l0.027629 0.010233c-0.666172 1.666966-1.321088 3.342118-1.938142 5.030573-4.513804 12.354376-7.888667 24.661679-10.035564 36.583197-0.36225 2.020006-0.723477 4.043083-1.030469 6.076392l-0.109494 0.788969c-0.245593 2.079358-0.539282 4.690836-0.756223 7.349385-0.553609 6.856152-0.813528 13.045107-0.794086 18.920932 0.022513 7.000438 0.288572 13.279445 0.813528 19.192108 0.167822 1.87879 0.357134 3.76065 0.565888 5.643534l0.10847 0.759293c0.24457 1.708921 0.586354 4.113691 0.74906 5.050016 2.130524 12.152784 5.102205 23.759123 8.834202 34.483372 1.26583 3.641947 2.352581 6.579859 3.415796 9.246595l0.680499 1.676176 0.375553 0.847298c2.508123 5.557576 4.934382 10.474562 7.40669 15.005762 5.110391 9.363252 10.717086 18.184151 16.665565 26.213012 0.376577 0.462534 1.067308 1.324158 1.834788 2.28095 1.12973 1.412163 2.439562 3.048429 2.987031 3.694135 2.170432 2.552126 3.856841 4.474918 5.472642 6.236028 4.106528 4.472871 7.907087 8.348132 11.618619 11.837606 4.76042 4.470825 9.190313 8.339946 13.543458 11.818163l0.63138 0.49528 0.39295 0.296759c0.37146 0.277316 0.73985 0.557702 1.115404 0.831948 2.716878 1.985214 4.810562 3.465938 6.785543 4.797259 10.007935 6.749728 20.166295 12.543687 30.197766 17.220197 1.577938 0.735757 3.163039 1.469468 4.758374 2.172479 2.746554 1.105171 4.852518 1.919722 6.818289 2.631944 5.814426 2.106987 11.097756 3.814886 16.151865 5.217838 6.53381 1.809205 12.447497 3.203972 18.072611 4.26207 3.288906 0.62524 5.951549 1.084705 8.373715 1.444908l0.299829 0.034792c0.88516 0.106424 1.769296 0.216941 2.656503 0.309038 8.097422 0.825808 16.123212 1.24434 23.854291 1.24434 4.387937 0 8.772804-0.1361 13.034874-0.402159 4.013407-0.251733 7.263427-0.518816 10.224876-0.840134 0.9967-0.106424 1.991354-0.226151 2.989077-0.341784 6.151094-0.958838 11.632945-2.01182 16.751522-3.220345 11.57564-2.733251 22.61916-6.229888 32.822546-10.396791l0.751107-0.338714c1.280156-0.578168 2.555196-1.153266 3.816932-1.750877 3.051499-1.447978 5.371334-2.591011 7.520277-3.713578 5.417383-2.825348 10.17064-5.517667 14.529925-8.226359 5.553483-3.449565 10.443863-6.745634 14.948457-10.079566l1.730411-1.295506 0.422625-0.338714c1.747807-1.413186 4.071735-3.314489 6.347568-5.304819 9.024537-7.868201 17.191544-16.137539 24.27487-24.567535 0.522909-0.620124 1.733481-2.14485 2.819209-3.515057 0.733711-0.916882 1.375324-1.727341 1.983167-2.425236l-0.004093-0.007163c0.937348-1.26276 1.868557-2.535753 2.77316-3.824095 3.495614-4.978385 6.471388-9.544377 9.098215-13.94971 3.362584-5.643534 6.199189-10.843976 8.67252-15.892969 1.445932-2.947122 2.579755-5.357008 3.574409-7.593955 0.154519-0.345877 0.347924-0.798179 0.539282-1.24741l0.5137-1.26276c4.466732-11.416004 7.943926-22.811542 10.32516-33.856086 0.835018-3.886517 1.447978-7.021927 1.927909-9.869788 0.145309-0.859577 0.437975-2.973728 0.669242-4.6366 0.121773-0.886183 0.230244-1.65264 0.292666-2.092661 0.522909-4.861728 0.864694-9.282411 1.045819-13.514805 0.530073-12.4608 0.11154-24.625864-1.242294-36.161594-0.158612-1.108241-0.336668-2.346441-0.438998-2.960425-0.255827-1.542122-0.509606-3.061732-0.796132-4.583388-0.469698-2.491751-1.106194-5.77554-1.864464-9.042957-1.509377-6.520507-3.080152-12.298094-4.804423-17.671475-1.266853-3.943822-2.363837-7.129374-3.448542-10.026354-0.239454-0.638543-0.843204-2.130524-1.413186-3.539616-0.445138-1.100054-0.845251-2.090615-1.163499-3.01466l-0.01842 0.007163c-2.124384-4.770653-4.178159-9.008164-6.27389-12.954033-5.567809-10.492982-11.772115-20.334117-18.436908-29.247114-0.656963-0.836041-1.483794-1.889023-1.890047-2.38021-0.949628-1.153266-1.893116-2.300392-2.860141-3.428076-2.340301-2.732228-4.160763-4.787026-5.900384-6.6607-4.426823-4.770653-8.538467-8.889461-12.56927-12.593829-2.996241-2.750647-5.472642-4.935406-7.789407-6.874571-0.535189-0.449231-1.840928-1.485841-3.044336-2.442632-0.830925-0.660032-1.620917-1.286296-2.330068-1.922792l-0.016373 0.022513c-4.195555-3.106758-8.037047-5.771447-11.745509-8.146541-8.890484-5.700839-18.274202-10.842952-27.89942-15.286148-1.639337-0.595564-3.231601-1.308809-4.743024-2.125407l-0.336668-0.150426c-8.754385-3.784186-15.057951-11.914354-17.358343-22.337751-0.740874-2.862187-1.116427-5.802146-1.116427-8.742105 0-4.455475 0.849344-8.831132 2.526543-13.003152 0.661056-1.753947 1.440815-3.403516 2.320858-4.903683 4.64581-7.927553 12.372795-13.865799 21.195741-16.294105 1.88186-0.51677 3.773953-0.87288 5.634324-1.058099 1.208525-0.137123 2.51938-0.212848 3.792373-0.212848 5.791913 0 11.55722 1.474584 16.706497 4.266164l0.329505 0.141216c30.109762 13.020548 58.316174 32.461319 81.570807 56.219419 41.938158 42.841737 67.833945 97.478102 74.890664 158.00257C782.59644 590.878488 770.662643 648.120191 742.539118 696.704722z" fill="#ff3c3c" /></svg>