<?xml version="1.0" standalone="no"?>
<!DOCTYPE svg PUBLIC "-//W3C//DTD SVG 20010904//EN"
 "http://www.w3.org/TR/2001/REC-SVG-20010904/DTD/svg10.dtd">
<svg version="1.0" xmlns="http://www.w3.org/2000/svg"
 width="1235.000000pt" height="1280.000000pt" viewBox="0 0 1235.000000 1280.000000"
 preserveAspectRatio="xMidYMid meet">
<g transform="translate(0.000000,1280.000000) scale(0.100000,-0.100000)"
fill="#000000" stroke="none">
<path d="M610 12764 c17 -22 525 -610 1520 -1759 380 -440 694 -806 697 -813
3 -7 -24 -39 -63 -74 -38 -33 -142 -134 -231 -224 -89 -90 -168 -164 -175
-164 -7 1 -123 97 -257 215 -135 118 -249 215 -254 215 -17 0 16 -31 255 -242
131 -115 238 -213 238 -219 0 -5 -35 -51 -78 -102 -157 -186 -325 -422 -455
-637 -73 -122 -237 -429 -237 -444 0 -25 26 16 93 144 96 186 158 288 324 535
177 261 361 491 386 482 27 -9 16 -41 -35 -100 -226 -260 -452 -596 -635 -944
-55 -105 -80 -143 -93 -143 -10 0 -25 -3 -34 -6 -10 -4 -16 -1 -16 8 0 9 -32
30 -77 50 -43 20 -246 113 -452 207 -205 95 -375 170 -378 168 -2 -2 8 -12 22
-21 14 -9 25 -22 25 -29 0 -6 188 -97 416 -202 229 -104 418 -194 421 -201 2
-6 -8 -38 -22 -70 -173 -383 -310 -867 -375 -1322 -23 -164 -23 -162 -11 -162
5 0 12 26 15 58 15 121 49 322 76 447 31 138 127 476 185 648 35 105 141 367
153 378 4 4 22 9 40 12 25 5 32 3 32 -9 0 -9 26 -27 64 -43 35 -16 67 -34 70
-39 3 -6 -5 -37 -20 -69 -171 -381 -301 -848 -360 -1287 -16 -128 -16 -126 -6
-126 5 0 18 71 30 158 37 262 70 402 176 755 61 202 155 453 194 521 12 21 26
30 50 32 21 3 32 0 32 -9 0 -7 127 -71 283 -141 155 -71 288 -135 296 -142 11
-10 4 -36 -47 -161 -126 -310 -210 -615 -256 -934 -18 -123 -20 -163 -6 -154
5 3 11 20 14 38 3 18 15 92 26 165 37 236 149 637 240 861 33 79 63 148 67
152 4 4 22 10 39 13 25 6 32 3 36 -11 6 -24 269 -146 294 -136 11 4 22 -1 33
-15 9 -13 126 -73 274 -140 199 -91 264 -117 288 -114 43 6 20 27 -27 24 -28
-2 -37 1 -41 17 -5 19 -54 44 -371 187 -89 40 -169 71 -177 67 -9 -3 -25 5
-38 19 -31 33 -268 139 -296 131 -17 -4 -24 -1 -28 15 -3 11 -17 25 -32 31
-14 5 -154 68 -310 140 -157 72 -297 131 -313 131 -16 0 -28 5 -28 13 0 7 -27
26 -61 42 -33 16 -63 33 -65 37 -14 22 234 465 374 668 140 203 362 482 388
488 8 2 233 -189 501 -423 602 -526 522 -456 758 -664 110 -97 212 -186 228
-197 15 -12 27 -25 27 -28 0 -3 -39 -54 -86 -113 -154 -194 -364 -533 -350
-568 12 -31 33 -12 70 63 35 72 121 202 132 202 12 0 -146 -285 -160 -288 -9
-2 -16 -8 -16 -13 0 -5 -12 -8 -27 -7 -25 3 -30 -3 -65 -86 -84 -193 -151
-428 -188 -651 -24 -144 -25 -165 -6 -165 8 0 18 -5 22 -11 8 -13 -14 -29 -31
-23 -7 3 -15 -4 -18 -15 -7 -29 -57 -30 -57 -2 0 24 -35 37 -55 21 -14 -11
-17 -11 -355 25 -156 16 -186 18 -178 10 3 -3 115 -16 249 -30 134 -14 254
-27 266 -30 22 -5 22 -5 16 -184 l-6 -179 24 -4 c28 -4 31 -21 4 -27 -11 -2
-24 -10 -30 -18 -9 -12 -63 -17 -275 -25 -243 -9 -281 -12 -269 -21 2 -2 94 1
204 5 110 5 231 7 270 6 l70 -3 7 -50 c12 -82 17 -95 38 -95 13 0 22 -9 26
-25 7 -27 23 -32 42 -13 9 9 12 8 12 -8 0 -11 4 -24 9 -30 5 -5 16 -54 26
-109 18 -108 72 -329 87 -357 5 -10 15 -18 22 -18 7 0 18 -11 24 -25 12 -26
26 -32 37 -15 3 5 -5 48 -19 95 -25 84 -69 296 -81 388 -4 30 -11 47 -20 47
-26 0 -27 21 -1 46 24 25 42 28 373 70 387 48 433 55 416 61 -6 2 -178 -17
-382 -42 -204 -26 -377 -45 -385 -42 -8 3 -17 29 -21 65 -5 47 -11 61 -26 65
-26 7 -24 25 4 37 12 6 29 14 37 19 8 5 155 14 325 20 400 15 448 14 443 -1
-3 -7 -16 -16 -29 -20 -13 -4 -186 -12 -384 -19 -198 -6 -362 -13 -364 -15
-11 -10 16 -11 174 -4 94 5 268 11 388 15 l217 7 6 -30 c4 -21 13 -32 27 -34
27 -4 34 -26 11 -35 -10 -3 -25 -14 -34 -23 -12 -12 -101 -26 -365 -59 -320
-39 -440 -58 -392 -60 10 -1 183 20 383 45 201 25 371 44 377 41 7 -3 18 -38
25 -78 23 -134 53 -231 73 -236 20 -6 25 -23 10 -39 -16 -15 7 -95 53 -185 24
-46 49 -84 56 -84 19 0 18 -64 0 -79 -8 -7 -166 -91 -350 -186 -354 -182 -346
-178 -339 -184 2 -3 160 76 349 174 190 99 352 180 361 180 10 0 38 -33 69
-82 76 -120 171 -238 289 -361 94 -98 103 -109 89 -125 -8 -9 -49 -57 -90
-107 -42 -49 -154 -182 -249 -295 -94 -113 -178 -207 -187 -208 -21 -6 -207
182 -323 326 -113 140 -173 227 -251 362 -60 105 -110 162 -133 153 -8 -3 -15
-7 -15 -9 0 -12 101 -181 166 -279 122 -183 265 -351 447 -524 67 -64 78 -86
55 -109 -9 -9 -9 -12 -1 -12 7 0 15 5 18 10 9 15 42 12 48 -3 3 -8 1 -20 -4
-28 -15 -25 -10 -33 10 -15 23 21 23 21 111 -49 36 -29 95 -73 133 -99 53 -38
67 -53 68 -74 0 -15 3 -21 6 -14 2 6 18 12 33 12 38 0 49 20 22 38 -12 8 -22
21 -22 28 0 8 -4 14 -9 14 -5 0 -47 28 -93 63 -46 34 -107 78 -135 96 -29 18
-53 39 -53 46 0 8 114 149 254 314 265 313 276 326 258 320 -6 -2 -112 -125
-237 -274 -282 -335 -292 -346 -309 -339 -32 12 -21 36 58 130 440 522 437
519 467 519 15 0 35 7 44 16 15 14 9 22 -60 90 -42 41 -89 92 -105 114 -15 22
-67 89 -115 150 -48 60 -104 140 -124 177 -20 37 -41 68 -47 68 -7 0 -12 17
-12 40 -1 40 0 41 71 77 40 20 67 38 61 40 -7 2 -37 -10 -68 -27 -31 -16 -65
-30 -75 -30 -18 0 -39 42 -84 173 -4 9 -13 17 -22 17 -8 0 -15 7 -15 15 0 8 4
15 10 15 5 0 7 6 4 13 -7 19 12 31 89 56 37 13 67 26 67 31 0 4 -28 -1 -62
-12 -35 -11 -70 -22 -79 -25 -8 -2 -20 2 -27 9 -9 12 -38 143 -57 259 -4 26
-10 36 -22 35 -24 -2 -28 25 -4 31 12 3 21 11 21 18 0 16 16 21 93 30 31 3 57
10 57 14 0 4 -30 4 -67 -1 -81 -10 -93 -6 -93 27 0 18 -5 25 -20 25 -11 0 -20
7 -20 15 0 8 9 15 19 15 10 0 21 7 25 15 3 10 20 15 48 16 24 1 57 5 73 9 24
7 16 8 -35 8 -36 0 -71 1 -78 1 -10 1 -13 24 -10 101 3 93 2 99 -17 102 -11 2
-20 10 -20 18 0 8 9 15 20 16 11 1 28 5 38 9 10 4 46 5 80 2 70 -6 43 7 -35
18 -44 6 -48 9 -48 33 0 73 66 312 126 460 19 45 34 85 34 87 0 3 -12 10 -26
15 -16 7 -24 16 -21 24 4 9 -5 19 -23 26 -16 7 -32 20 -35 29 -3 10 -137 76
-345 171 -202 92 -340 160 -340 168 0 50 196 364 334 536 77 95 86 111 73 123
-13 13 -27 -1 -116 -111 -56 -69 -104 -126 -107 -126 -12 0 53 105 112 179 42
53 71 81 84 81 14 0 20 7 20 24 0 17 17 39 55 73 31 26 86 78 122 116 36 37
70 67 75 67 24 0 1 -35 -54 -81 -34 -28 -89 -81 -121 -116 -47 -52 -56 -67
-46 -79 10 -12 32 6 131 102 80 78 125 114 138 112 17 -3 500 -552 500 -568 0
-4 -11 -15 -23 -23 -30 -20 -80 -70 -114 -113 l-26 -35 23 -24 c12 -13 19 -28
16 -33 -3 -6 25 -39 64 -74 38 -35 70 -69 70 -76 0 -7 -20 -38 -45 -68 -78
-96 -216 -318 -203 -329 2 -1 13 -8 26 -14 12 -6 22 -18 22 -25 0 -8 13 -19
30 -26 16 -7 32 -20 35 -30 3 -10 28 -27 55 -38 28 -12 50 -26 50 -33 0 -7
-11 -40 -25 -75 -33 -82 -73 -232 -81 -305 -6 -53 -5 -58 15 -61 30 -4 27 -22
-3 -26 -21 -3 -26 -10 -31 -45 -4 -23 -5 -62 -3 -87 2 -38 7 -46 26 -48 27 -4
29 -22 2 -29 -29 -8 -27 -55 3 -68 12 -6 23 -19 25 -30 2 -17 9 -20 47 -17 29
3 45 9 45 17 0 8 4 16 8 19 4 2 73 12 153 22 149 18 191 16 170 -10 -7 -8 -67
-20 -161 -31 -82 -10 -150 -22 -150 -26 0 -5 12 -6 28 -4 96 17 276 35 282 28
4 -4 15 -34 24 -65 13 -46 21 -58 36 -58 11 0 20 -6 20 -12 1 -34 15 -37 80
-17 35 11 66 21 67 23 2 2 -1 23 -6 47 -5 24 -12 56 -16 72 -3 15 -12 27 -20
27 -23 0 -29 22 -10 37 16 11 10 13 -54 13 -54 0 -72 3 -69 13 3 7 29 14 64
17 74 6 84 13 84 56 0 28 -5 36 -27 45 -28 10 -23 24 11 31 15 2 22 17 32 63
6 33 24 91 38 128 l25 68 -24 11 c-39 18 -33 42 9 34 33 -6 35 -5 83 65 26 39
52 77 58 85 7 11 -2 25 -38 58 -45 43 -58 66 -37 66 6 0 30 -18 54 -40 49 -45
65 -49 91 -20 17 19 16 21 -25 70 -57 68 -46 86 17 27 27 -26 53 -47 57 -47 3
0 22 10 41 23 34 21 45 50 25 62 -15 9 -12 35 4 35 7 0 21 -11 30 -24 l16 -25
67 30 c36 17 98 39 137 49 58 14 72 22 76 41 8 31 28 35 35 7 6 -23 9 -23 130
-23 68 0 127 3 131 8 14 13 32 7 37 -13 5 -21 31 -27 42 -10 10 16 23 12 30
-9 5 -18 75 -51 107 -51 10 0 28 -10 42 -22 13 -13 48 -41 77 -63 93 -71 156
-135 162 -163 3 -15 24 -46 45 -69 28 -31 39 -51 40 -77 1 -19 13 -62 27 -95
14 -33 25 -67 25 -76 0 -8 9 -15 20 -15 24 0 26 -18 4 -35 -16 -11 -17 -26
-14 -142 1 -35 5 -42 23 -45 28 -4 29 -32 2 -36 -30 -5 -45 -31 -45 -78 0 -34
4 -44 20 -49 31 -10 25 -35 -8 -35 -26 0 -31 -6 -54 -64 l-25 -64 25 -19 c34
-26 22 -49 -16 -29 -25 13 -28 12 -97 -58 -38 -39 -98 -103 -132 -142 -35 -39
-74 -77 -88 -84 -23 -12 -25 -18 -20 -52 8 -44 -1 -48 -30 -13 -19 23 -23 24
-65 13 -25 -6 -85 -24 -135 -41 -49 -17 -110 -33 -135 -36 -37 -5 -46 -10 -48
-28 -4 -30 -20 -29 -31 0 -8 21 -18 25 -87 30 -50 5 -82 3 -90 -4 -15 -12 -34
-4 -34 15 0 17 -69 54 -122 65 -58 12 -111 33 -121 48 -4 7 -33 29 -64 50 -31
20 -68 55 -82 78 -34 53 -77 107 -125 158 l-38 41 -57 -30 c-45 -23 -56 -34
-56 -54 0 -21 -18 -33 -147 -100 -81 -41 -148 -78 -148 -83 0 -4 69 27 152 69
l153 77 30 -39 c16 -21 60 -71 98 -111 37 -39 67 -80 67 -89 0 -9 -24 -44 -54
-78 -98 -112 -166 -199 -161 -205 4 -3 9 -1 13 5 15 22 213 253 221 259 14 8
42 -24 34 -38 -12 -20 -199 -241 -216 -255 -11 -9 -21 -11 -33 -4 -13 7 -24 2
-47 -25 l-31 -35 40 -37 c22 -20 60 -52 84 -72 l44 -35 -46 -76 c-26 -42 -43
-80 -40 -84 11 -13 -29 17 -69 52 -21 18 -53 40 -73 49 -47 23 -178 145 -218
204 -18 25 -57 78 -89 117 -32 39 -72 95 -89 124 -17 29 -45 66 -62 82 -29 27
-34 28 -60 17 -21 -8 -28 -17 -25 -29 7 -27 -2 -34 -82 -74 -40 -21 -71 -40
-68 -42 3 -3 37 11 76 30 39 20 77 36 84 36 8 0 40 -39 72 -87 32 -49 86 -122
120 -163 84 -101 266 -275 348 -334 37 -26 67 -54 67 -62 0 -7 -18 -43 -41
-80 -22 -36 -39 -70 -37 -76 2 -5 24 25 48 67 44 74 46 75 78 70 18 -4 42 -15
52 -25 28 -28 208 -111 323 -150 54 -19 97 -39 97 -46 0 -7 -7 -43 -15 -80 -9
-36 -14 -69 -11 -71 4 -5 11 16 33 106 7 26 33 56 49 56 1 0 5 14 8 31 6 28 4
32 -18 38 -17 4 -26 13 -26 26 0 11 -5 20 -11 20 -6 0 -52 19 -103 41 -50 23
-133 55 -184 72 -52 16 -96 36 -99 42 -2 7 6 30 20 52 32 50 59 103 53 103 -3
0 -26 -32 -51 -71 -33 -51 -50 -69 -61 -65 -9 3 -18 6 -20 6 -12 0 0 28 38 91
35 61 44 70 64 65 18 -5 27 1 44 29 l22 35 -72 70 c-45 45 -68 75 -64 83 14
23 215 257 221 257 4 0 29 -15 57 -34 116 -76 151 -96 218 -122 39 -16 72 -33
75 -40 2 -7 -11 -79 -30 -161 -19 -81 -32 -152 -29 -157 3 -6 18 46 34 115 44
193 47 199 67 199 11 0 21 7 25 15 8 22 26 18 26 -5 0 -11 3 -20 8 -20 44 -1
148 -23 154 -33 4 -6 8 -70 9 -142 0 -71 5 -139 10 -150 5 -13 7 35 3 128 -4
95 -3 157 4 170 6 12 13 30 16 40 8 24 30 16 34 -12 3 -21 6 -22 70 -15 85 8
192 35 276 69 36 14 70 24 76 20 5 -3 35 -56 66 -117 31 -61 70 -124 86 -142
16 -17 48 -52 72 -78 l44 -48 89 59 c170 112 303 244 412 405 28 41 51 78 51
81 0 3 -33 38 -73 78 -50 49 -109 93 -185 137 -69 40 -112 71 -112 81 0 9 11
42 25 73 30 69 31 79 4 91 -12 6 -21 15 -21 20 2 20 32 16 54 -7 16 -17 70
-38 179 -71 160 -48 204 -57 157 -31 -16 8 -28 21 -28 29 0 8 -37 25 -102 45
-57 17 -121 37 -143 44 l-40 13 3 72 c3 66 1 71 -18 71 -11 0 -20 7 -20 15 0
9 9 15 24 15 13 0 26 6 29 14 5 12 33 13 161 9 114 -4 156 -3 156 5 0 9 -43
12 -148 12 -102 0 -152 4 -160 12 -7 7 -12 38 -12 69 0 70 -7 89 -31 89 -25 0
-24 20 1 27 11 3 20 11 20 19 0 17 14 20 182 35 76 7 138 17 138 21 0 5 -15 7
-32 4 -18 -3 -89 -10 -157 -16 -101 -9 -126 -9 -135 2 -6 7 -25 52 -40 101
-16 48 -35 87 -41 87 -8 0 -13 15 -13 38 l-1 38 151 72 c83 39 149 74 146 77
-3 3 -67 -23 -142 -59 -183 -87 -170 -85 -201 -37 -15 22 -24 45 -20 50 11 19
260 191 275 191 14 -1 74 -73 86 -105 4 -8 12 -15 20 -15 7 0 19 -10 25 -22 6
-13 13 -24 14 -26 1 -2 19 5 39 14 26 13 36 24 36 41 0 20 12 29 70 55 38 17
70 35 70 39 0 10 -32 -1 -89 -31 -61 -31 -71 -26 -118 49 -24 38 -43 73 -43
78 0 11 113 93 128 93 5 0 21 -17 34 -37 14 -21 37 -51 52 -68 14 -16 29 -38
32 -47 3 -10 11 -18 19 -18 8 0 12 -11 10 -32 -1 -30 -8 -37 -68 -68 -86 -45
-87 -58 -1 -19 74 34 94 32 94 -8 1 -15 19 -80 41 -143 23 -63 46 -141 52
-172 8 -45 15 -58 29 -58 10 0 18 -6 18 -13 0 -25 -46 -52 -110 -64 l-65 -12
60 2 c33 1 65 -2 71 -6 7 -4 15 -53 19 -116 7 -102 9 -110 29 -113 13 -2 22
-11 24 -25 3 -19 10 -23 43 -23 21 0 39 5 39 10 0 6 34 11 78 12 l77 1 -77 10
-77 10 -5 71 c-4 39 -7 94 -9 121 -2 43 -5 50 -24 53 -29 4 -29 8 6 43 20 20
40 29 63 30 18 0 51 4 73 9 33 7 25 9 -45 7 l-85 -2 -13 55 c-45 193 -115 390
-138 390 -8 0 -14 10 -14 25 0 29 -34 101 -91 191 -22 34 -39 66 -39 72 0 10
117 99 139 104 11 3 94 -107 131 -174 11 -21 25 -38 30 -38 6 0 10 -11 10 -25
0 -14 7 -42 16 -63 9 -20 24 -71 34 -112 11 -41 35 -121 54 -177 19 -56 38
-128 41 -158 6 -46 12 -58 30 -65 12 -5 25 -18 28 -29 7 -27 50 -28 77 -1 11
11 32 20 48 20 36 -1 693 61 711 66 42 13 -13 13 -150 0 -85 -9 -254 -25 -377
-37 -122 -11 -228 -19 -236 -16 -7 3 -20 43 -30 94 -32 162 -121 415 -156 443
-15 12 -17 22 -12 49 7 33 13 37 257 152 138 65 299 142 360 170 60 29 105 54
99 56 -5 2 -167 -71 -359 -162 -191 -91 -355 -165 -364 -165 -9 0 -38 37 -69
90 -29 49 -73 110 -97 135 -43 46 -44 46 -69 29 -21 -13 -24 -19 -15 -30 15
-18 3 -32 -78 -90 -64 -46 -93 -51 -93 -16 0 12 28 38 76 71 41 29 73 56 70
59 -4 3 -40 -18 -81 -47 -42 -29 -81 -51 -88 -49 -7 2 -47 41 -89 88 -117 132
-325 310 -362 310 -9 0 -19 7 -23 15 -3 9 -25 29 -49 46 -24 16 -44 35 -44 40
0 6 15 44 34 85 45 96 31 96 -16 0 -35 -69 -39 -74 -74 -78 -29 -3 -38 -1 -41
13 -3 9 -36 31 -74 49 -38 17 -69 35 -69 40 0 4 11 38 25 74 26 69 32 97 16
81 -5 -6 -19 -41 -31 -78 -13 -41 -29 -70 -39 -73 -9 -3 -24 -10 -33 -15 -25
-13 -28 -12 -28 10 0 15 -13 24 -56 38 l-56 17 7 46 c15 104 13 120 -6 43 -17
-68 -24 -83 -40 -83 -12 0 -19 -7 -19 -19 0 -11 -3 -26 -6 -35 -4 -10 2 -19
19 -27 14 -6 27 -19 30 -29 3 -11 19 -20 41 -24 56 -11 57 -19 8 -153 -2 -7 0
-13 6 -13 6 0 20 29 32 65 24 72 22 70 68 80 24 5 32 3 32 -8 0 -8 25 -23 61
-36 33 -13 62 -28 65 -36 3 -7 -9 -41 -26 -75 -17 -34 -29 -67 -27 -73 2 -7
20 21 41 61 24 48 42 72 54 72 15 0 62 -24 191 -96 38 -22 72 -49 144 -118 29
-26 78 -70 111 -98 58 -49 146 -149 146 -166 0 -10 -132 -102 -147 -102 -6 0
-59 50 -119 111 -104 106 -239 219 -261 219 -5 0 -29 18 -52 39 l-42 39 35 71
c39 75 40 81 28 81 -5 0 -23 -31 -42 -69 -33 -69 -34 -70 -72 -69 -21 0 -38 4
-38 7 0 4 -22 22 -50 40 -27 18 -52 36 -55 40 -2 5 4 35 15 66 11 32 20 63 20
68 0 22 -16 -7 -36 -66 -16 -48 -26 -63 -44 -67 -15 -4 -27 -17 -35 -40 -11
-32 -10 -36 21 -67 18 -18 51 -40 74 -49 22 -9 40 -22 40 -30 0 -8 -32 -77
-70 -154 -38 -77 -70 -145 -69 -152 0 -7 36 58 80 146 72 143 82 157 102 152
12 -3 25 -6 28 -6 3 0 -31 -71 -75 -157 l-81 -158 -37 -2 c-21 -1 -38 2 -38 8
0 5 -12 21 -27 34 -30 26 -81 33 -100 14 -19 -19 -33 0 -33 44 0 23 13 102 29
175 16 73 26 134 22 136 -4 3 -19 -59 -35 -137 -35 -181 -34 -177 -56 -177
-10 0 -20 -7 -24 -15 -8 -21 -26 -19 -26 3 0 28 -67 44 -171 41 -49 -2 -91 -1
-93 2 -2 2 -12 70 -22 152 -10 81 -22 147 -26 147 -5 0 -6 -17 -3 -37 24 -160
33 -259 24 -267 -5 -6 -9 -23 -9 -39 0 -34 -23 -32 -28 2 -3 22 -7 23 -53 17
-56 -8 -170 -46 -240 -81 -25 -13 -50 -20 -56 -17 -6 4 -41 54 -78 112 -40 63
-97 134 -141 178 l-74 72 -38 -19 c-20 -11 -55 -35 -76 -53 l-40 -35 27 -35
c15 -19 27 -43 27 -54 0 -10 43 -68 95 -128 53 -60 104 -120 116 -134 l20 -25
-33 -34 c-17 -18 -37 -33 -43 -33 -6 0 -43 28 -81 63 -147 132 -192 167 -213
167 -11 0 -21 6 -21 13 0 7 -29 42 -65 77 -36 35 -65 69 -65 75 0 6 27 37 59
69 l60 59 -20 28 c-10 15 -19 35 -19 44 0 9 -27 48 -60 87 -33 38 -60 73 -60
77 0 17 182 151 205 151 5 0 22 -19 37 -43 15 -23 49 -61 75 -85 26 -24 57
-52 68 -62 20 -19 21 -19 129 35 159 80 454 171 477 148 5 -5 12 -33 16 -62
10 -84 18 -66 18 41 0 94 -1 101 -22 109 -12 4 -24 17 -28 28 -8 25 -34 23
-185 -14 -130 -32 -225 -67 -356 -131 -61 -30 -114 -54 -118 -54 -3 0 -19 20
-34 44 -15 24 -42 57 -59 74 -17 17 -33 42 -35 55 -6 32 -440 706 -455 707
-15 0 -21 18 -15 47 3 15 28 36 81 67 89 52 213 111 256 120 39 9 22 -4 -70
-50 -101 -52 -255 -138 -255 -144 0 -3 4 -11 9 -19 8 -12 26 -5 100 38 268
155 596 274 913 332 110 20 128 26 130 43 4 28 28 32 35 6 6 -21 8 -21 107
-13 157 12 457 7 594 -11 139 -19 152 -23 152 -43 0 -8 -34 -181 -75 -385 -42
-204 -73 -373 -71 -376 9 -8 12 7 86 373 38 193 72 360 75 371 3 12 14 24 25
27 26 7 26 37 -1 44 -11 3 -24 16 -29 27 -9 24 -48 32 -265 57 -121 14 -414
17 -547 6 -95 -9 -97 -9 -100 -35 -4 -33 -32 -36 -36 -4 -3 21 -7 23 -50 17
-328 -45 -719 -180 -1013 -350 -43 -25 -85 -45 -93 -45 -8 0 -19 13 -24 30 -6
16 -79 135 -161 263 -83 129 -151 238 -151 243 0 6 39 33 88 61 278 164 591
294 903 377 172 45 410 89 421 78 5 -5 23 -121 39 -258 30 -247 36 -281 44
-273 4 5 -28 297 -46 418 -6 41 -8 94 -4 118 5 34 3 44 -10 49 -9 4 -23 0 -33
-8 -9 -8 -65 -23 -124 -32 -298 -47 -656 -164 -959 -312 -212 -104 -340 -180
-333 -199 4 -8 2 -15 -4 -15 -10 0 -23 50 -16 61 2 4 34 25 71 47 350 207 890
400 1271 453 62 9 92 17 92 26 0 17 -17 17 -157 -7 -417 -71 -860 -233 -1228
-449 -38 -23 -73 -41 -76 -41 -4 0 -33 41 -65 92 -32 50 -68 101 -81 112 -13
11 -23 26 -23 35 0 16 -365 589 -387 607 -7 6 -16 25 -19 41 -6 30 -4 32 117
103 469 273 1116 504 1631 583 87 13 148 27 148 33 0 12 -22 9 -255 -32 -529
-94 -1135 -321 -1578 -593 -37 -22 -74 -41 -82 -41 -8 0 -31 24 -51 54 -20 30
-42 57 -50 60 -8 3 -14 13 -14 22 0 25 -717 1133 -763 1179 -22 22 -38 33 -35
25 11 -30 720 -1125 739 -1142 10 -9 19 -22 19 -28 0 -17 110 -189 126 -198 7
-4 14 -20 16 -36 3 -27 -4 -35 -62 -75 -89 -61 -356 -262 -405 -305 -74 -63
-27 -49 52 16 151 125 410 308 437 308 8 0 90 -118 186 -267 95 -148 177 -271
183 -275 6 -3 12 -12 13 -20 1 -7 3 -19 5 -27 3 -8 -44 -48 -116 -99 -66 -46
-164 -121 -219 -165 -87 -71 -101 -79 -118 -68 -18 11 -19 10 -13 -8 5 -17
-25 -51 -171 -193 -97 -95 -183 -174 -190 -176 -8 -2 -14 4 -14 16 0 11 70 88
175 191 96 95 175 175 175 177 0 24 -58 -23 -204 -166 -95 -94 -178 -170 -185
-170 -19 0 -671 573 -671 591 0 13 259 277 364 372 l88 79 80 -78 c51 -50 78
-71 74 -57 -6 18 5 32 66 82 99 80 352 266 405 298 41 23 61 52 28 39 -40 -15
-235 -154 -397 -283 -116 -93 -140 -105 -155 -79 -4 7 -31 40 -60 72 -29 33
-445 514 -925 1069 -1255 1454 -1381 1598 -1398 1603 -13 5 -13 3 0 -14z
m2260 -2619 c10 -12 -1 -27 -67 -86 -43 -40 -146 -142 -230 -227 -149 -151
-183 -174 -183 -125 0 21 433 453 454 453 7 0 19 -7 26 -15z m1216 -554 c34
-50 70 -98 81 -106 11 -8 23 -25 25 -38 7 -34 310 -506 326 -507 6 0 12 -3 13
-7 7 -62 14 -53 -111 -138 -47 -32 -110 -80 -141 -107 -57 -49 -79 -59 -79
-34 0 8 37 40 83 71 45 30 105 74 133 98 28 23 63 51 77 62 20 14 25 24 18 34
-11 18 -62 -14 -228 -140 -63 -48 -120 -85 -126 -83 -10 5 -223 246 -372 423
-27 32 -85 100 -128 151 -77 90 -78 93 -60 112 49 55 399 310 418 305 6 -2 37
-45 71 -96z m-438 -343 l74 -88 -167 -165 c-93 -91 -173 -164 -179 -162 -22 9
-176 150 -176 162 0 21 338 347 356 343 9 -2 50 -42 92 -90z m112 -139 c0 -18
-320 -330 -331 -324 -5 4 -9 12 -9 19 0 6 69 80 153 164 139 137 187 174 187
141z m211 -232 c198 -227 239 -276 239 -287 0 -5 -24 -27 -52 -50 -29 -23 -88
-79 -131 -126 l-79 -84 -36 28 c-20 15 -44 34 -52 43 -18 20 -185 168 -295
263 -44 38 -84 76 -89 84 -7 12 28 51 147 169 86 85 162 153 170 151 8 -2 88
-88 178 -191z m633 -76 c15 -42 439 -700 451 -701 15 0 36 -38 26 -45 -5 -3
-18 6 -28 19 l-18 25 -42 -21 c-23 -11 -71 -47 -107 -80 -45 -41 -70 -57 -79
-51 -16 9 -567 645 -567 654 0 9 155 129 249 193 89 61 96 61 115 7z m325
-1035 c24 -24 41 -50 39 -57 -4 -17 -131 -139 -145 -139 -17 0 -93 71 -93 87
0 14 136 153 150 153 3 0 25 -20 49 -44z m-1373 -194 c6 -4 13 -13 15 -21 3
-7 155 -82 339 -167 184 -84 339 -159 344 -167 5 -8 -4 -45 -27 -103 -57 -142
-104 -320 -123 -461 -6 -49 -5 -51 17 -55 32 -4 31 -33 -1 -34 -14 -1 -33 -5
-42 -8 -16 -8 -62 -4 -423 34 -104 11 -226 22 -270 25 -80 4 -80 4 -20 -5 33
-5 197 -23 365 -40 168 -17 315 -33 328 -35 21 -5 22 -9 22 -114 0 -105 1
-110 22 -113 31 -4 35 -28 5 -28 -14 0 -27 5 -29 10 -2 7 -76 7 -233 0 -127
-5 -302 -11 -390 -12 l-160 -3 2 162 c1 152 0 163 -18 168 -53 17 2 47 81 45
34 0 575 -54 675 -66 28 -4 47 -3 43 1 -8 8 -52 13 -462 55 -187 19 -292 34
-297 42 -4 7 -6 24 -4 38 49 292 110 512 205 730 31 73 35 90 23 94 -8 3 -18
4 -23 1 -4 -3 -29 -56 -55 -117 -75 -180 -88 -166 -18 17 43 111 76 149 109
127z m3295 -41 l24 -19 -99 -147 c-54 -80 -96 -149 -93 -152 3 -3 49 61 103
141 53 80 103 146 109 146 7 0 18 -6 24 -14 10 -12 -6 -42 -81 -155 -51 -77
-98 -142 -105 -145 -17 -7 -61 16 -73 40 -10 18 -1 43 64 172 43 86 82 152 90
152 8 0 24 -9 37 -19z m-1311 -195 c36 -58 71 -105 78 -106 6 0 12 -5 12 -11
0 -6 -9 -8 -20 -4 -13 4 -34 -4 -64 -24 -25 -17 -49 -31 -55 -31 -18 0 -193
209 -189 227 2 9 32 36 68 61 l64 44 21 -26 c11 -14 49 -72 85 -130z m1508 48
c173 -150 199 -178 184 -200 -7 -9 -202 -149 -265 -189 l-29 -19 -56 60 c-32
32 -74 74 -95 92 -22 19 -36 40 -33 47 12 31 187 285 197 285 5 0 49 -34 97
-76z m-2078 20 c22 -20 40 -42 40 -50 0 -7 -13 -28 -28 -46 -41 -47 -114 -154
-151 -220 l-32 -58 25 -10 c25 -9 37 -40 15 -40 -19 0 -49 20 -49 33 0 7 -25
25 -55 40 -30 15 -55 30 -55 35 0 35 222 352 246 352 2 0 22 -16 44 -36z
m2540 -79 c16 -20 4 -35 -71 -86 -58 -39 -89 -43 -89 -10 0 15 122 110 141
111 4 0 12 -7 19 -15z m-2246 -177 c58 -51 106 -96 106 -101 0 -5 -17 -29 -38
-53 -21 -23 -53 -70 -70 -102 l-32 -59 25 -11 c21 -10 36 -42 20 -42 -16 0
-54 25 -58 39 -3 9 -61 41 -136 75 -72 33 -131 65 -131 71 0 33 172 275 196
275 7 0 60 -41 118 -92z m2006 7 c6 -8 9 -19 5 -24 -14 -24 -277 -202 -293
-199 -9 2 -18 11 -20 20 -2 11 40 47 139 117 79 56 146 101 150 101 3 0 12 -7
19 -15z m-2342 -223 c15 -16 80 -52 146 -82 65 -30 120 -60 123 -67 3 -7 -4
-35 -15 -61 -24 -56 -56 -208 -47 -222 3 -5 13 -10 21 -10 23 0 16 -20 -11
-30 -22 -8 -25 -15 -25 -60 0 -43 3 -50 20 -50 11 0 20 -7 20 -15 0 -8 -7 -15
-16 -15 -9 0 -23 -8 -30 -17 -11 -16 -33 -18 -161 -21 -114 -3 -152 -7 -165
-19 -9 -8 -22 -12 -27 -8 -15 9 -14 25 2 25 7 0 20 9 30 20 15 18 30 20 144
21 71 1 139 5 153 9 14 5 -44 6 -137 3 l-163 -6 0 61 c0 55 -2 61 -22 64 -32
4 -29 32 3 36 24 3 28 9 34 50 10 76 53 229 84 303 l30 70 -25 11 c-13 6 -24
17 -24 25 0 22 30 15 58 -15z m-1690 -669 c5 -17 -26 -29 -40 -15 -6 6 -7 15
-3 22 9 14 37 9 43 -7z m-53 -58 c0 -5 -10 -11 -22 -13 -16 -2 -23 2 -23 13 0
11 7 15 23 13 12 -2 22 -7 22 -13z m70 -165 c0 -8 -10 -16 -22 -18 -18 -3 -23
2 -23 18 0 16 5 21 23 18 12 -2 22 -10 22 -18z m3801 -207 c14 -15 76 -57 137
-94 62 -36 113 -73 115 -82 6 -29 -55 -103 -223 -268 -164 -161 -234 -219
-267 -219 -11 0 -39 42 -85 130 -37 71 -74 130 -81 130 -15 0 -38 47 -28 58 4
4 18 -5 30 -21 l22 -28 74 52 c40 28 101 79 134 113 63 62 156 185 156 204 0
6 -9 16 -20 22 -11 6 -20 15 -20 20 0 19 31 10 56 -17z"/>
<path d="M8764 11714 c-403 -813 -408 -824 -396 -824 9 0 794 1592 787 1598
-2 3 -178 -346 -391 -774z"/>
<path d="M8840 11714 c-199 -401 -373 -755 -387 -786 -14 -32 -28 -58 -32 -59
-64 -6 -71 -6 -71 7 0 16 -134 80 -347 167 -113 45 -153 66 -153 78 0 21 119
361 131 374 11 11 12 45 2 45 -5 0 -39 -89 -77 -198 -38 -108 -74 -202 -80
-208 -6 -7 -26 -15 -43 -19 -26 -5 -33 -3 -33 9 0 18 -151 68 -383 126 -82 21
-153 42 -158 47 -5 5 12 114 46 283 30 150 53 276 50 278 -7 8 -11 -8 -67
-287 -43 -217 -56 -265 -70 -269 -23 -6 -23 -5 12 -41 26 -25 53 -35 178 -66
206 -50 355 -94 370 -109 11 -11 9 -26 -13 -89 -15 -42 -25 -81 -23 -88 2 -7
18 24 34 70 16 46 36 85 44 88 8 2 23 9 32 14 24 12 25 12 30 -9 4 -12 31 -28
84 -46 105 -38 376 -153 400 -171 18 -13 17 -17 -23 -99 -24 -47 -39 -86 -35
-86 4 0 25 36 47 79 38 79 39 80 77 79 21 0 38 -5 38 -12 0 -6 43 -33 95 -59
95 -49 351 -199 369 -217 6 -6 -11 -39 -44 -90 -29 -44 -50 -83 -47 -86 3 -3
24 23 48 58 62 92 68 99 90 88 29 -16 32 6 3 25 l-27 17 26 22 c30 25 512 745
504 753 -3 3 -118 -164 -256 -370 -137 -206 -255 -378 -261 -382 -6 -4 -68 29
-138 73 -70 43 -175 105 -234 137 -60 32 -108 65 -108 72 0 8 173 366 385 795
212 430 383 783 380 786 -2 3 -167 -323 -365 -724z"/>
<path d="M5401 12145 c-1 -36 76 -674 88 -730 19 -89 9 23 -34 374 -46 367
-53 412 -54 356z"/>
<path d="M5451 12098 c-1 -36 88 -760 94 -767 10 -9 4 44 -40 406 -45 362 -53
415 -54 361z"/>
<path d="M7246 11899 c-8 -21 -116 -559 -116 -572 0 -7 4 -6 9 3 12 19 122
572 116 578 -2 3 -7 -1 -9 -9z"/>
<path d="M7851 11377 c-92 -261 -86 -244 -74 -232 6 6 41 93 77 195 37 102 71
193 76 202 6 10 10 25 10 33 0 44 -22 -5 -89 -198z"/>
<path d="M5506 11270 c3 -41 9 -91 14 -110 7 -25 8 -13 4 47 -3 44 -9 94 -14
110 -7 20 -8 6 -4 -47z"/>
<path d="M5556 11220 c10 -110 24 -157 18 -61 -3 46 -10 93 -15 105 -6 14 -7
-1 -3 -44z"/>
<path d="M7111 11244 c-16 -62 -33 -166 -28 -171 7 -6 12 14 32 115 17 86 14
125 -4 56z"/>
<path d="M9230 10904 c-139 -207 -250 -378 -247 -380 5 -5 494 716 504 743 16
42 -31 -24 -257 -363z"/>
<path d="M7167 11213 c-2 -4 -10 -38 -17 -76 -9 -48 -19 -72 -34 -83 -14 -11
-17 -18 -8 -21 14 -5 38 -28 44 -40 1 -5 80 -27 173 -50 94 -23 218 -58 278
-77 59 -18 110 -30 113 -25 9 15 31 10 36 -8 3 -12 34 -28 84 -47 121 -44 357
-146 372 -160 11 -11 -14 -68 -139 -319 -84 -169 -150 -309 -146 -313 3 -4 75
132 159 302 137 276 155 309 176 307 29 -4 28 11 -3 31 -14 9 -24 20 -21 25 6
8 -153 82 -337 156 -70 29 -130 55 -133 58 -4 3 8 44 25 91 17 48 27 86 22 86
-4 0 -22 -37 -38 -82 -26 -71 -33 -83 -51 -81 -12 2 -22 -2 -22 -7 0 -18 -28
-11 -32 8 -4 14 -46 30 -184 70 -98 28 -210 59 -249 68 -38 8 -74 19 -78 24
-5 4 -2 43 7 86 15 70 16 99 3 77z"/>
<path d="M5524 11077 c-7 -12 -50 -23 -164 -43 -318 -53 -728 -173 -1032 -300
-292 -123 -750 -374 -683 -374 3 0 49 26 103 59 485 292 1057 501 1646 601 97
16 122 18 131 8 7 -7 29 -152 50 -323 20 -170 40 -312 42 -315 9 -8 -4 120
-38 388 -23 179 -28 246 -20 256 9 10 7 19 -7 36 -17 21 -20 22 -28 7z"/>
<path d="M5580 11034 c-1 -40 85 -694 91 -694 5 0 6 12 4 28 -3 15 -23 170
-45 346 -21 175 -41 321 -44 324 -3 3 -6 1 -6 -4z"/>
<path d="M7066 11019 c-12 -37 -137 -672 -133 -676 3 -2 8 4 11 14 15 51 136
666 132 671 -3 3 -8 -1 -10 -9z"/>
<path d="M7118 10968 c-3 -7 -34 -154 -69 -327 -53 -263 -66 -315 -81 -319
-24 -6 -23 -28 3 -35 11 -3 23 -14 25 -24 4 -15 33 -26 137 -51 211 -52 267
-71 267 -92 0 -10 -20 -72 -44 -138 -28 -78 -40 -124 -33 -131 10 -10 1 -31
-14 -31 -5 0 -9 8 -9 18 0 20 -22 29 -234 87 -71 19 -131 37 -134 40 -4 4 22
154 45 255 4 17 2 22 -4 15 -6 -5 -18 -50 -27 -100 -26 -136 -35 -165 -52
-165 -8 0 -17 -7 -20 -15 -9 -21 -34 -19 -34 3 0 16 -15 22 -97 35 -169 29
-263 38 -447 46 -161 7 -533 -2 -544 -14 -3 -2 -12 0 -22 5 -14 7 -20 34 -30
125 -7 63 -17 118 -22 121 -5 4 -7 -8 -4 -28 17 -100 26 -211 18 -221 -10 -12
2 -57 14 -57 4 0 15 7 24 15 13 12 52 16 171 19 157 5 148 1 -61 -24 -58 -7
-106 -13 -107 -14 -1 -1 1 -7 5 -14 6 -9 29 -9 97 -1 254 31 943 -5 989 -51 8
-8 -2 -73 -38 -253 -63 -306 -61 -294 -49 -282 6 6 32 118 57 250 51 259 58
285 80 285 7 0 16 7 20 15 8 22 26 18 26 -5 0 -13 9 -22 28 -26 73 -16 292
-75 330 -88 24 -9 56 -13 72 -9 22 4 30 2 30 -9 0 -10 39 -30 111 -58 147 -56
219 -89 225 -104 3 -7 -50 -124 -116 -260 -66 -137 -118 -251 -116 -254 3 -3
61 107 128 244 l123 249 38 3 c21 2 37 -1 37 -7 0 -6 24 -23 53 -37 28 -15
112 -62 184 -106 73 -44 137 -77 142 -73 15 9 -56 76 -129 121 -133 83 -271
155 -289 152 -10 -2 -27 7 -37 19 -11 12 -86 50 -168 85 -82 35 -154 72 -160
81 -9 14 -2 44 32 139 23 67 40 124 37 126 -8 8 -8 6 -52 -118 -33 -95 -43
-116 -61 -118 -29 -4 -28 7 7 109 53 153 51 149 77 149 13 0 24 5 24 10 0 18
22 11 27 -9 3 -13 35 -30 106 -56 56 -21 155 -62 220 -92 65 -29 122 -51 128
-48 5 4 17 -3 27 -14 9 -11 64 -45 122 -77 86 -47 176 -99 296 -172 33 -20
298 -224 358 -276 116 -100 334 -315 411 -406 85 -101 215 -269 215 -280 0 -4
-56 -46 -125 -95 -69 -48 -125 -92 -125 -98 0 -6 4 -6 13 0 6 6 65 47 130 93
104 72 120 81 133 68 8 -8 12 -21 9 -29 -3 -8 -52 -45 -108 -84 -56 -38 -110
-78 -120 -88 -17 -17 -20 -17 -36 -3 -27 25 -41 20 -35 -11 5 -26 -2 -33 -88
-94 -312 -220 -369 -262 -364 -266 3 -3 105 66 228 152 123 87 230 160 239
162 11 3 26 -12 46 -44 70 -112 163 -274 197 -341 20 -40 43 -75 51 -78 9 -4
13 -18 12 -41 l-2 -36 -252 -120 c-139 -66 -253 -123 -253 -128 0 -7 47 14
364 165 76 36 144 66 151 66 25 0 93 -177 170 -439 74 -254 90 -327 130 -589
4 -23 10 -40 14 -38 4 3 13 1 20 -4 16 -9 6 -30 -15 -30 -8 0 -14 -6 -14 -14
0 -18 -18 -21 -305 -47 -132 -12 -242 -23 -244 -25 -12 -11 26 -9 272 14 166
16 271 22 276 16 5 -5 13 -109 17 -231 6 -208 8 -222 26 -227 26 -6 18 -30
-10 -34 -12 -2 -22 -8 -22 -14 0 -8 -78 -9 -271 -5 -150 4 -269 3 -265 -1 4
-4 124 -9 267 -12 190 -4 262 -8 267 -17 24 -38 -83 -683 -135 -820 -3 -7 2
-13 11 -13 31 0 110 342 146 635 7 55 16 123 20 150 l8 50 1 -60 c4 -225 -90
-741 -145 -793 -26 -25 -61 -26 -57 -1 2 11 -57 33 -249 92 -138 42 -254 79
-257 82 -3 3 0 29 7 58 55 245 77 379 90 534 8 90 7 92 -15 98 -30 7 -30 35 0
35 13 0 28 5 34 11 7 7 96 9 277 7 146 -2 266 0 266 5 0 4 -71 8 -157 8 -87 1
-210 4 -273 8 l-115 6 -7 165 c-8 200 -12 226 -38 233 -20 5 -28 27 -10 27 5
0 17 9 27 19 15 16 42 22 148 31 195 17 398 40 404 46 6 6 -48 2 -343 -26
-103 -10 -194 -16 -201 -14 -7 3 -16 26 -20 52 -24 173 -89 423 -155 597 -58
156 -91 225 -107 225 -7 0 -18 11 -24 24 -14 30 -39 23 -39 -9 0 -13 -6 -27
-12 -31 -9 -6 -5 -10 11 -14 31 -7 67 -91 117 -270 19 -69 48 -166 64 -216 26
-81 47 -183 65 -316 5 -39 10 -48 26 -48 10 0 19 -7 19 -15 0 -8 -9 -15 -19
-15 -23 0 -34 -25 -22 -48 5 -9 12 -101 16 -204 7 -174 9 -188 26 -188 26 0
24 -23 -3 -35 -21 -9 -24 -19 -30 -100 -10 -136 -68 -462 -104 -586 -3 -11 3
-18 17 -22 27 -7 19 -32 -11 -32 -19 0 -27 -13 -55 -90 -46 -124 -137 -334
-186 -428 -32 -60 -39 -81 -29 -90 15 -16 27 1 89 123 57 111 124 266 157 364
27 78 54 111 84 101 11 -4 20 -12 20 -19 0 -19 533 -179 570 -171 21 5 31 1
42 -13 9 -13 53 -32 122 -53 59 -18 110 -39 113 -46 3 -7 -8 -50 -23 -95 -34
-104 -207 -495 -268 -607 -48 -88 -53 -101 -36 -101 31 0 237 436 325 688 26
75 39 97 60 108 34 18 45 18 45 1 0 -9 102 -45 303 -107 166 -51 307 -97 314
-102 14 -11 6 -42 -56 -207 -72 -191 -203 -481 -281 -625 -38 -70 -70 -132
-70 -137 0 -28 24 7 97 144 121 226 220 454 304 697 34 100 46 123 60 115 4
-3 12 2 17 11 12 21 47 11 39 -11 -5 -10 16 -21 81 -41 48 -15 101 -27 117
-27 17 0 35 -6 40 -13 6 -7 73 -31 150 -54 77 -24 146 -45 153 -47 6 -3 12 -1
12 5 0 5 -11 13 -25 16 -15 4 -25 14 -25 25 0 14 -24 25 -122 55 -67 20 -126
40 -130 44 -4 4 14 95 41 202 69 274 119 586 136 835 3 50 8 114 11 143 3 30
1 52 -4 52 -6 0 -13 -42 -17 -92 -28 -396 -90 -767 -176 -1060 -16 -54 -24
-68 -39 -68 -11 0 -20 -5 -20 -11 0 -6 -8 -9 -17 -7 -10 2 -18 10 -18 18 0 19
-160 72 -198 65 -18 -3 -33 1 -45 13 -9 9 -148 57 -307 106 -160 48 -295 93
-302 100 -9 8 -6 32 13 101 78 288 154 845 117 859 -9 4 -13 -4 -13 -22 -1
-133 -45 -467 -85 -647 -54 -240 -64 -270 -98 -285 -27 -12 -31 -11 -44 5 -8
11 -57 32 -120 52 -58 18 -110 36 -115 41 -4 4 6 62 23 127 41 165 76 370 94
559 8 88 15 162 15 166 0 4 -9 10 -20 13 -29 7 -25 23 12 41 22 12 66 17 157
18 l126 2 -125 5 c-69 3 -130 9 -136 13 -7 5 -13 82 -17 215 -4 114 -9 218
-13 230 -3 11 -15 24 -27 27 -21 5 -20 6 9 36 30 28 38 30 157 41 70 7 125 15
122 18 -3 7 -141 -2 -215 -13 -19 -3 -40 -2 -46 2 -6 4 -21 68 -34 142 -30
182 -80 381 -139 558 -60 180 -136 362 -160 382 -11 9 -17 27 -16 45 1 28 9
34 129 93 71 34 126 65 123 68 -3 3 -58 -20 -123 -50 -64 -31 -125 -56 -135
-56 -13 0 -28 19 -49 60 -42 84 -124 220 -192 322 -32 48 -58 89 -58 92 0 5
226 165 243 172 8 2 20 -3 29 -13 23 -28 212 -350 254 -436 21 -41 41 -74 45
-71 5 3 16 -7 25 -21 21 -32 32 -32 36 2 3 28 -3 25 477 251 73 35 131 65 128
68 -3 3 -139 -58 -303 -135 -164 -78 -305 -141 -314 -141 -9 0 -26 20 -39 48
-39 80 -139 251 -218 371 -41 62 -73 114 -71 116 56 45 566 395 577 395 24 0
214 -306 318 -515 25 -49 63 -107 84 -129 39 -38 39 -38 39 -12 0 22 11 31 81
67 45 22 79 42 76 45 -2 3 -40 -11 -83 -31 -43 -20 -83 -34 -90 -31 -6 2 -39
57 -73 121 -66 125 -191 332 -265 441 -25 36 -46 70 -46 75 0 5 36 34 80 65
75 52 100 74 85 74 -4 0 -45 -27 -91 -61 -69 -50 -87 -59 -99 -49 -26 22 -16
37 60 89 70 48 95 71 80 71 -4 0 -42 -25 -85 -55 -43 -30 -84 -53 -92 -49 -7
3 -41 43 -75 88 -237 315 -617 689 -955 940 -75 55 -137 108 -137 116 -1 8 21
49 49 90 27 41 47 76 45 79 -6 6 -2 10 -64 -81 -28 -43 -55 -78 -59 -78 -5 0
-13 5 -20 12 -19 19 -27 0 -8 -21 17 -18 10 -30 -181 -312 -109 -161 -203
-294 -209 -296 -5 -2 -55 25 -110 60 -54 36 -144 90 -199 122 -55 31 -104 60
-108 64 -4 4 60 146 143 316 83 169 148 310 145 313 -3 3 -73 -132 -155 -301
l-151 -306 -39 1 c-25 0 -40 5 -40 13 0 23 -434 202 -446 184 -9 -15 -31 -10
-36 9 -5 18 -136 62 -331 111 -43 11 -81 22 -84 25 -3 3 25 152 61 332 58 283
73 373 54 322z m1808 -760 c345 -239 752 -635 1019 -992 l59 -78 -23 -20 c-54
-43 -550 -388 -559 -388 -5 0 -46 46 -91 103 -230 286 -524 571 -803 777 -49
35 -88 70 -88 77 0 15 381 583 390 583 4 0 47 -28 96 -62z m1107 -1112 c3 -8
0 -21 -6 -29 -27 -33 -560 -398 -574 -393 -41 16 -2 52 267 241 151 107 282
195 291 195 9 0 19 -6 22 -14z m-916 -3318 c-3 -8 -6 -5 -6 6 -1 11 2 17 5 13
3 -3 4 -12 1 -19z m-16 -90 c-18 -99 -43 -188 -52 -188 -13 0 -12 9 15 101 13
46 27 101 31 122 4 21 10 36 13 33 2 -3 -1 -34 -7 -68z"/>
<path d="M8347 10715 c-26 -52 -43 -95 -39 -95 10 0 98 178 91 184 -3 3 -26
-37 -52 -89z"/>
<path d="M5624 10300 c3 -19 10 -78 16 -130 12 -109 19 -144 26 -137 8 7 -28
281 -38 292 -6 6 -8 -3 -4 -25z"/>
<path d="M8557 10025 c-109 -162 -193 -295 -188 -295 5 0 93 127 197 281 217
323 208 309 196 309 -5 0 -97 -133 -205 -295z"/>
<path d="M6916 10279 c-3 -8 -17 -69 -31 -137 -24 -117 -31 -171 -20 -160 8 8
66 300 60 306 -2 3 -7 -1 -9 -9z"/>
<path d="M5721 9906 c-1 -29 55 -501 65 -545 3 -13 7 -21 10 -19 4 5 -63 564
-70 583 -3 6 -5 -3 -5 -19z"/>
<path d="M6841 9618 c-29 -145 -55 -274 -58 -288 -4 -16 -2 -22 4 -15 5 6 34
129 63 275 29 146 55 271 57 278 3 6 1 12 -4 12 -6 0 -34 -118 -62 -262z"/>
<path d="M3844 9695 c-134 -92 -324 -241 -324 -255 0 -17 18 -11 52 18 53 45
351 264 376 275 21 10 31 37 14 37 -5 0 -58 -34 -118 -75z"/>
<path d="M10546 9514 c-169 -119 -305 -218 -302 -221 3 -3 33 15 68 39 35 24
171 120 303 213 132 93 242 170 244 172 2 2 2 5 -1 8 -3 3 -143 -92 -312 -211z"/>
<path d="M10596 9464 c-169 -119 -305 -219 -302 -221 3 -3 17 4 33 14 92 65
579 407 582 410 2 1 2 5 -1 8 -2 3 -143 -92 -312 -211z"/>
<path d="M7660 9328 c-113 -229 -127 -253 -150 -253 -32 0 -39 -30 -11 -45 12
-6 21 -16 21 -23 0 -7 33 -29 73 -49 127 -65 170 -96 164 -118 -6 -22 3 -26
20 -9 8 8 17 8 33 -1 20 -11 20 -13 5 -36 -18 -28 -10 -31 17 -7 18 16 22 14
81 -27 105 -73 196 -152 348 -302 138 -135 288 -309 289 -334 0 -6 -7 -17 -15
-24 -25 -21 -17 -32 11 -13 21 13 30 14 45 4 26 -16 40 -5 33 24 -5 20 4 30
63 71 254 178 403 287 399 291 -3 3 -103 -64 -222 -148 -278 -197 -258 -186
-287 -152 -14 16 -65 75 -114 133 -156 182 -385 393 -579 533 -29 20 -57 37
-63 37 -7 0 -28 15 -47 34 -19 18 -70 53 -114 77 -44 24 -88 49 -98 56 -15 10
-4 36 107 265 68 139 126 256 128 261 2 4 0 7 -4 7 -5 0 -65 -114 -133 -252z"/>
<path d="M5752 9305 c0 -16 2 -22 5 -12 2 9 2 23 0 30 -3 6 -5 -1 -5 -18z"/>
<path d="M6710 9268 c0 -19 2 -20 10 -8 13 19 13 30 0 30 -5 0 -10 -10 -10
-22z"/>
<path d="M6760 9218 c0 -19 2 -20 10 -8 13 19 13 30 0 30 -5 0 -10 -10 -10
-22z"/>
<path d="M6741 9134 c0 -6 -37 -188 -81 -404 -44 -216 -78 -395 -75 -398 2 -3
7 1 9 9 16 46 157 771 153 786 -3 10 -5 13 -6 7z"/>
<path d="M7436 9024 c-10 -25 1 -29 14 -5 6 12 7 21 1 21 -5 0 -12 -7 -15 -16z"/>
<path d="M7486 8974 c-10 -25 1 -29 14 -5 6 12 7 21 1 21 -5 0 -12 -7 -15 -16z"/>
<path d="M11181 8766 c-260 -124 -478 -230 -485 -237 -16 -18 -24 -21 489 221
441 209 503 240 480 240 -6 0 -223 -101 -484 -224z"/>
<path d="M7214 8575 c-100 -201 -177 -365 -172 -365 8 0 141 260 284 558 45
94 79 172 75 172 -4 0 -88 -164 -187 -365z"/>
<path d="M11255 8727 c-497 -236 -519 -247 -513 -253 4 -3 976 451 987 462 24
23 -93 -29 -474 -209z"/>
<path d="M7266 8529 c-97 -199 -175 -364 -172 -366 3 -3 64 113 137 258 164
328 230 469 220 469 -4 0 -87 -163 -185 -361z"/>
<path d="M10674 8478 c1 -19 -14 -30 -84 -65 -47 -23 -77 -42 -67 -43 10 0 49
16 88 35 38 20 74 33 80 29 11 -6 47 -83 86 -184 77 -199 107 -288 152 -448
100 -354 142 -546 172 -784 14 -111 36 -137 25 -30 -4 37 -9 82 -13 101 -4 22
-2 32 4 28 14 -9 36 -161 28 -196 -8 -36 20 -65 39 -39 9 12 61 20 236 37 124
12 269 26 323 31 53 6 141 14 195 19 53 6 152 15 220 22 67 7 122 15 122 18 0
4 -105 -3 -232 -16 -128 -12 -282 -27 -343 -32 -60 -6 -200 -20 -310 -30 -122
-12 -204 -16 -210 -11 -7 5 -17 54 -24 107 -21 169 -88 480 -145 679 -95 330
-242 701 -303 761 -38 39 -40 39 -39 11z"/>
<path d="M1557 8323 c-184 -426 -317 -902 -368 -1314 -7 -56 -17 -98 -25 -105
-8 -6 -12 -18 -9 -25 4 -11 29 -14 99 -14 52 -1 92 3 90 7 -3 4 -20 8 -37 8
-18 0 -49 3 -69 6 -37 6 -38 8 -38 48 0 49 40 300 70 436 73 332 181 667 310
959 44 100 44 101 32 101 -5 0 -29 -48 -55 -107z"/>
<path d="M5948 8403 c-55 -4 -58 -5 -58 -31 0 -19 7 -30 23 -37 12 -6 23 -20
25 -33 2 -14 9 -22 16 -19 7 3 69 8 137 12 143 8 376 -9 398 -30 10 -10 11
-23 2 -64 -6 -29 -11 -64 -10 -79 1 -24 8 -2 34 114 3 12 14 24 25 27 28 7 28
57 -1 64 -11 3 -24 16 -29 28 -7 18 -21 23 -92 34 -88 13 -374 22 -470 14z"/>
<path d="M10146 8202 c-170 -80 -304 -148 -299 -149 10 -4 601 272 618 288 22
21 -26 1 -319 -139z"/>
<path d="M1791 8235 c-100 -227 -190 -492 -256 -754 -36 -144 -90 -424 -101
-529 -4 -35 -14 -70 -22 -78 -13 -14 -13 -17 1 -31 12 -12 19 -14 30 -5 10 8
61 6 203 -8 104 -11 248 -26 319 -33 119 -13 146 -13 134 -3 -2 2 -146 18
-319 35 -173 18 -318 35 -323 38 -24 14 25 314 98 609 66 267 152 515 279 806
9 20 12 39 7 42 -4 3 -27 -37 -50 -89z"/>
<path d="M5876 8259 c10 -109 24 -147 18 -49 -3 47 -10 92 -15 100 -6 10 -7
-9 -3 -51z"/>
<path d="M6778 8275 c-9 -20 -6 -28 23 -57 20 -20 64 -45 107 -62 43 -17 72
-34 72 -42 0 -8 -16 -46 -36 -85 -19 -39 -33 -73 -30 -76 4 -5 37 53 64 112
15 35 31 46 53 40 22 -7 46 44 27 56 -7 5 -16 9 -20 9 -4 0 -13 12 -20 27 -13
28 -31 37 -166 81 l-63 21 -11 -24z"/>
<path d="M5926 8215 c12 -109 24 -147 18 -55 -3 47 -10 92 -15 100 -5 9 -6 -8
-3 -45z"/>
<path d="M6730 8215 c-30 -75 -58 -165 -50 -165 10 0 72 169 67 184 -3 6 -10
-2 -17 -19z"/>
<path d="M8494 8039 c-3 -6 3 -23 14 -38 11 -15 32 -52 47 -81 15 -30 49 -86
75 -125 26 -38 59 -94 74 -122 14 -29 30 -53 35 -53 5 0 9 -18 9 -39 l1 -39
-207 -98 c-441 -208 -515 -244 -510 -249 3 -3 166 71 363 164 197 93 364 167
370 164 7 -2 24 -34 38 -71 47 -118 155 -510 174 -624 15 -97 20 -111 40 -119
14 -5 23 -17 23 -29 0 -30 38 -26 52 6 9 20 9 27 -1 33 -7 5 -23 62 -36 127
-37 188 -73 325 -119 452 -66 180 -99 250 -120 256 -11 3 -15 9 -11 17 10 15
14 80 5 74 -12 -7 -27 11 -65 80 -21 39 -70 119 -108 178 -67 104 -69 108 -52
127 22 25 9 26 -18 3 -18 -17 -19 -17 -32 0 -14 19 -31 22 -41 6z"/>
<path d="M9641 7964 c-74 -35 -132 -67 -129 -69 6 -7 278 120 278 129 0 11
-15 5 -149 -60z"/>
<path d="M2460 7888 c-97 -231 -182 -505 -234 -753 -31 -153 -61 -364 -52
-373 10 -10 26 19 26 50 0 50 51 328 86 469 44 180 127 429 197 592 30 70 52
129 49 132 -14 13 -24 -3 -72 -117z"/>
<path d="M5965 7926 c2 -33 0 -66 -4 -75 -4 -9 -6 -35 -3 -58 3 -34 8 -42 25
-45 14 -2 23 -11 25 -26 4 -23 6 -24 73 -17 76 8 269 -3 290 -16 11 -6 8 -34
-15 -156 -16 -81 -31 -155 -34 -163 -3 -10 -2 -12 6 -5 5 6 24 77 41 159 27
133 37 158 63 168 3 2 9 20 13 40 6 34 5 39 -18 47 -13 5 -27 18 -29 29 -7 25
-60 33 -252 38 -82 2 -152 6 -155 9 -3 4 -11 34 -18 68 l-12 62 4 -59z"/>
<path d="M9145 7804 c-143 -67 -261 -127 -263 -133 -4 -12 504 224 527 245 22
20 -42 -7 -264 -112z"/>
<path d="M5944 7703 c2 -16 13 -94 22 -175 9 -82 21 -148 26 -148 5 0 6 10 3
23 -4 21 -19 140 -32 270 -3 31 -10 57 -15 57 -5 0 -7 -12 -4 -27z"/>
<path d="M4384 7185 c30 -30 88 -62 174 -96 30 -12 28 5 -3 19 -14 6 -25 18
-25 25 0 12 -150 87 -173 87 -4 0 8 -16 27 -35z"/>
<path d="M235 6980 c11 -5 117 -18 235 -30 118 -12 298 -30 400 -40 102 -11
196 -19 210 -19 50 2 -62 18 -272 39 -117 11 -295 30 -396 40 -204 22 -205 22
-177 10z"/>
<path d="M12145 6949 c-79 -9 -263 -27 -712 -70 -128 -13 -233 -25 -233 -29 0
-4 1008 87 1125 103 60 8 -103 4 -180 -4z"/>
<path d="M273 6934 c5 -5 191 -28 414 -51 223 -23 410 -46 415 -51 5 -5 4 -80
-2 -178 -13 -218 -13 -451 0 -459 7 -4 10 51 11 157 1 267 14 456 33 476 24
27 2 42 -48 36 -23 -3 -108 1 -191 10 -82 8 -242 24 -355 36 -113 11 -223 23
-245 26 -22 4 -36 2 -32 -2z"/>
<path d="M7245 6830 c-88 -43 -155 -79 -148 -79 15 -1 323 145 323 153 0 11
-15 5 -175 -74z"/>
<path d="M10963 6891 c-28 -4 -55 -9 -59 -13 -8 -8 126 1 176 12 33 7 32 8
-15 8 -27 -1 -73 -4 -102 -7z"/>
<path d="M10483 6846 c-177 -18 -325 -35 -329 -39 -10 -9 -3 -9 171 8 83 8
231 22 330 31 99 9 184 21 190 25 12 12 15 12 -362 -25z"/>
<path d="M11115 6864 c-8 -12 -32 -19 -82 -23 -102 -9 -103 -21 -1 -14 l85 6
7 -39 c3 -22 9 -162 13 -311 3 -150 10 -273 15 -273 11 0 10 307 -2 469 -7 95
-7 137 0 146 8 10 8 19 -2 34 -15 25 -20 26 -33 5z"/>
<path d="M1225 6831 c65 -14 182 -22 165 -12 -8 5 -58 11 -110 14 -61 4 -81 3
-55 -2z"/>
<path d="M10538 6796 c-181 -18 -331 -36 -335 -39 -9 -10 -25 -11 347 24 184
17 339 35 345 40 12 11 31 13 -357 -25z"/>
<path d="M11172 6773 c4 -32 11 -169 14 -305 6 -197 4 -251 -6 -263 -11 -13
-11 -19 3 -32 13 -14 19 -14 32 -3 12 10 93 11 408 6 215 -4 425 -9 465 -12
45 -4 72 -3 72 4 0 6 -144 12 -397 17 -219 4 -432 10 -473 13 l-75 7 -2 125
c-3 212 -25 500 -38 500 -8 0 -9 -17 -3 -57z"/>
<path d="M1156 6718 c-3 -57 -9 -199 -13 -315 -3 -117 -10 -213 -15 -213 -12
0 -9 -12 8 -35 14 -19 16 -19 28 -3 9 12 36 19 92 25 l79 8 -85 5 -85 5 0 195
c0 107 4 248 8 313 6 73 5 117 -1 117 -5 0 -12 -46 -16 -102z"/>
<path d="M1450 6811 c0 -6 9 -11 21 -11 78 0 616 -63 624 -73 8 -8 8 -77 2
-223 -6 -117 -7 -224 -3 -238 12 -48 26 -26 26 42 0 37 5 74 10 82 7 10 10
-17 10 -85 0 -94 12 -151 24 -115 2 8 7 123 10 256 3 133 6 247 8 254 2 7 -3
15 -9 17 -9 3 -13 -8 -13 -39 -1 -23 -7 -72 -14 -108 -13 -62 -14 -63 -17 -25
-4 64 2 158 13 179 14 27 -15 55 -40 39 -13 -8 -44 -8 -108 -2 -49 5 -179 18
-289 29 -110 11 -212 23 -227 26 -17 3 -28 1 -28 -5z"/>
<path d="M10105 6765 c-7 -10 -47 -18 -135 -26 -69 -6 -127 -13 -129 -15 -8
-8 85 -4 168 7 68 8 87 7 98 -3 10 -10 15 -74 20 -256 5 -192 9 -242 20 -242
14 0 17 45 16 230 l-1 105 8 -75 c11 -112 11 -255 0 -266 -7 -7 -5 -16 4 -29
13 -17 17 -18 40 -6 21 12 84 13 343 9 175 -3 298 -2 273 3 -25 4 -130 8 -235
9 -104 1 -233 5 -285 9 l-95 6 -6 165 c-10 273 -19 350 -39 350 -10 0 -20 9
-23 20 -6 23 -28 26 -42 5z"/>
<path d="M2550 6740 c25 -5 140 -18 255 -30 116 -11 228 -23 250 -26 25 -4 36
-3 30 3 -10 9 -347 48 -505 58 -63 4 -68 3 -30 -5z"/>
<path d="M2466 6708 c-3 -13 -9 -120 -13 -239 -6 -215 -6 -216 15 -221 27 -8
28 -24 2 -38 -24 -13 -27 -71 -9 -181 9 -54 16 -69 29 -69 9 0 22 -11 28 -25
13 -27 32 -34 32 -11 0 8 4 17 8 20 5 3 125 19 268 37 142 17 264 36 269 41 6
6 -2 8 -25 4 -19 -3 -98 -13 -175 -21 -77 -9 -183 -22 -235 -30 -112 -17 -120
-13 -120 59 0 86 -10 126 -31 126 -24 0 -25 29 -1 37 9 3 24 12 32 19 11 8 85
14 248 19 128 4 247 11 265 16 18 4 -58 5 -168 1 -110 -4 -234 -7 -275 -7
l-75 0 -3 110 c-1 61 1 158 6 218 5 79 5 107 -4 107 -16 0 -24 -24 -24 -68 0
-20 -5 -44 -10 -52 -8 -11 -10 13 -8 78 2 63 -1 92 -8 92 -7 0 -14 -10 -18
-22z"/>
<path d="M3160 6680 c0 -5 9 -10 21 -10 11 0 17 5 14 10 -3 6 -13 10 -21 10
-8 0 -14 -4 -14 -10z"/>
<path d="M8608 6611 c-207 -20 -380 -40 -384 -44 -4 -4 -3 -7 2 -7 48 0 774
73 789 80 18 8 18 9 -5 8 -14 0 -195 -17 -402 -37z"/>
<path d="M7635 6570 c-26 -7 -23 -8 20 -8 28 0 70 3 95 7 44 8 43 8 -20 9 -36
0 -78 -4 -95 -8z"/>
<path d="M7990 6553 c-25 -3 -49 -8 -54 -13 -10 -10 105 -3 164 10 33 7 31 8
-15 7 -27 0 -70 -2 -95 -4z"/>
<path d="M7503 6521 c-10 -15 -34 -20 -160 -31 -81 -7 -152 -17 -157 -21 -13
-11 -18 -12 158 6 83 8 153 12 158 7 4 -4 9 -49 10 -99 3 -86 4 -92 26 -98 26
-6 29 -23 5 -31 -10 -3 -26 -10 -35 -15 -10 -5 -86 -10 -170 -10 l-153 -2 143
-8 c79 -4 150 -10 157 -13 10 -4 12 -13 5 -38 -4 -18 -11 -67 -14 -108 -5 -71
-4 -76 17 -85 12 -6 22 -17 22 -25 0 -11 54 -37 82 -40 10 -1 53 216 53 266 0
15 -7 24 -20 26 -26 4 -27 22 -1 26 11 2 25 10 31 18 8 9 35 15 79 16 l66 2
-70 5 -70 6 -9 107 c-8 98 -11 107 -30 110 -13 2 -22 12 -24 26 -3 19 -9 22
-45 22 -30 0 -45 -5 -54 -19z"/>
<path d="M4250 6520 c56 -13 167 -21 150 -11 -8 4 -53 11 -100 14 -53 3 -72 2
-50 -3z"/>
<path d="M4363 6276 c-5 -7 -40 -17 -83 -23 l-75 -10 78 -2 c70 -1 79 -3 84
-21 3 -11 13 -20 22 -20 31 0 31 -12 2 -41 -23 -22 -42 -30 -88 -35 -91 -10
-97 -23 -8 -21 l79 2 8 -45 c4 -25 20 -84 34 -133 20 -64 31 -86 43 -85 8 2
21 -9 28 -24 12 -24 16 -26 43 -17 17 7 30 19 32 31 2 17 20 27 78 47 41 14
68 27 60 28 -8 2 -42 -6 -75 -17 -47 -16 -61 -18 -71 -8 -11 11 -28 82 -48
199 -4 25 -13 38 -26 42 -25 6 -26 25 -2 34 9 4 22 13 27 20 6 7 33 16 60 19
81 11 88 25 9 18 -57 -5 -73 -3 -80 8 -5 8 -17 18 -27 21 -11 4 -21 16 -24 27
-4 15 -14 20 -39 20 -18 0 -37 -6 -41 -14z"/>
<path d="M8091 6226 c-10 -11 -28 -13 -83 -9 -53 5 -69 3 -64 -5 4 -7 34 -12
72 -12 73 0 82 -9 65 -62 -6 -18 -17 -87 -26 -153 -8 -66 -17 -131 -21 -146
-4 -20 -1 -27 20 -37 14 -6 26 -18 26 -26 0 -8 10 -18 23 -21 12 -4 29 -16 37
-26 10 -12 139 -56 394 -134 325 -100 383 -115 402 -104 12 6 27 9 32 5 6 -3
13 -2 16 3 3 5 -4 11 -17 15 -12 3 -23 1 -25 -4 -7 -19 -54 -11 -59 10 -6 22
-4 21 -472 164 -134 41 -248 79 -254 85 -7 7 -5 34 7 88 22 98 46 248 46 291
0 26 -5 35 -25 42 -15 6 -25 17 -25 30 0 15 -7 20 -29 20 -16 0 -34 -6 -40
-14z"/>
<path d="M9068 6233 c7 -3 16 -2 19 1 4 3 -2 6 -13 5 -11 0 -14 -3 -6 -6z"/>
<path d="M7708 6213 c29 -2 74 -2 100 0 26 2 2 3 -53 3 -55 0 -76 -1 -47 -3z"/>
<path d="M10126 6184 c-6 -15 -22 -16 -136 -12 -73 3 -130 2 -130 -3 0 -5 56
-9 124 -9 91 0 126 -3 135 -13 24 -30 -50 -534 -115 -790 -33 -128 -37 -165
-15 -141 10 10 51 166 80 304 31 143 59 330 71 475 6 72 16 140 22 152 8 17 8
26 -2 38 -16 19 -26 19 -34 -1z"/>
<path d="M10973 6193 c32 -2 81 -2 110 0 29 2 3 3 -58 3 -60 0 -84 -1 -52 -3z"/>
<path d="M640 6168 c-228 -9 -369 -20 -329 -26 35 -4 761 26 767 33 7 7 -182
4 -438 -7z"/>
<path d="M1340 6155 c-8 -10 -32 -15 -74 -16 -33 0 -70 -5 -81 -10 -14 -6 6
-8 63 -6 51 2 85 0 91 -7 4 -6 11 -51 15 -101 10 -144 18 -197 28 -187 5 5 4
62 -2 133 -6 68 -9 138 -5 155 7 39 -15 63 -35 39z"/>
<path d="M4635 6165 c-5 -2 -36 -6 -67 -10 -32 -4 -58 -10 -58 -14 0 -8 167
13 177 22 6 7 -34 8 -52 2z"/>
<path d="M10240 6160 c14 -4 174 -9 355 -12 182 -4 312 -3 290 2 -50 10 -679
20 -645 10z"/>
<path d="M11125 6160 c-3 -5 -41 -11 -83 -12 l-77 -2 75 -3 c41 -2 80 -9 86
-14 13 -11 13 -18 -6 -234 -24 -266 -126 -798 -181 -942 -11 -29 -3 -45 11
-23 4 7 22 66 39 129 85 321 141 656 157 936 5 90 10 123 22 132 12 10 13 15
2 28 -14 17 -36 20 -45 5z"/>
<path d="M1089 6145 c-11 -11 -89 -17 -378 -29 -199 -8 -366 -18 -370 -21 -6
-7 146 -3 544 15 128 5 194 5 203 -2 6 -6 12 -31 12 -57 0 -80 23 -261 33
-261 6 0 7 20 3 53 -15 119 -19 256 -8 270 9 11 8 18 -6 30 -16 14 -20 15 -33
2z"/>
<path d="M11220 6142 c0 -6 167 -12 428 -16 235 -4 455 -9 490 -12 37 -3 62
-2 62 4 0 6 -147 12 -377 16 -208 3 -429 9 -490 12 -69 3 -113 2 -113 -4z"/>
<path d="M1403 5960 c6 -164 14 -201 39 -167 10 13 79 25 338 57 178 22 327
43 330 47 8 9 -107 -3 -472 -50 -98 -13 -183 -20 -190 -16 -14 9 -26 96 -27
201 -1 44 -6 80 -12 84 -8 4 -9 -40 -6 -156z"/>
<path d="M1153 5940 c1 -118 6 -179 14 -187 16 -17 20 -16 26 6 3 14 18 20 66
25 89 10 124 28 41 20 -36 -3 -72 -7 -81 -10 -29 -8 -38 19 -44 136 -12 195
-24 200 -22 10z"/>
<path d="M4980 6009 c-182 -62 -174 -58 -167 -65 6 -6 347 104 347 112 0 11
-46 -1 -180 -47z"/>
<path d="M5040 5961 c-178 -58 -184 -60 -177 -67 6 -6 347 104 347 112 0 9
-30 1 -170 -45z"/>
<path d="M2843 5942 c-155 -19 -280 -39 -278 -43 3 -4 13 -5 23 -3 9 2 136 17
282 35 146 17 269 35 275 40 11 11 35 13 -302 -29z"/>
<path d="M4754 5907 c-17 -7 -29 -16 -28 -22 7 -20 -12 -32 -81 -55 -38 -13
-64 -25 -58 -27 11 -4 68 12 130 34 7 3 25 -22 43 -57 18 -35 40 -64 50 -67
11 -3 22 -14 25 -24 8 -23 15 -23 58 -3 27 13 33 21 29 39 -4 21 11 31 149
101 83 43 147 80 141 82 -7 2 -74 -29 -150 -69 -84 -44 -145 -70 -155 -66 -9
3 -21 25 -28 47 -8 27 -21 45 -35 50 -11 5 -24 18 -27 29 -6 23 -18 25 -63 8z"/>
<path d="M7697 5783 c-20 -43 -39 -91 -43 -108 -4 -16 -18 -52 -31 -78 -13
-27 -23 -50 -21 -52 2 -1 13 -8 26 -14 12 -6 22 -17 22 -23 0 -16 85 -94 131
-120 21 -12 39 -27 39 -32 0 -34 -128 -192 -290 -358 -177 -183 -281 -270
-397 -334 -29 -16 -53 -35 -53 -42 0 -22 20 -52 34 -52 7 0 18 -11 24 -25 l12
-25 85 52 c261 160 520 415 666 656 l33 54 -24 18 c-14 10 -22 22 -18 25 11
11 47 -5 58 -24 5 -10 152 -103 326 -207 174 -104 319 -194 321 -201 12 -31
-174 -288 -328 -453 -140 -149 -323 -318 -438 -403 -124 -93 -299 -199 -319
-195 -11 2 -82 127 -191 336 -95 182 -179 332 -186 332 -7 0 -18 13 -25 29 -7
18 -17 28 -25 25 -8 -3 -21 6 -30 19 l-16 25 -73 -33 c-40 -19 -107 -43 -150
-55 -43 -11 -157 -43 -254 -70 -193 -53 -314 -71 -328 -48 -5 7 -12 42 -15 78
l-6 65 -1 -72 c-1 -39 -6 -75 -12 -78 -5 -3 -10 -19 -10 -35 0 -22 5 -29 23
-32 14 -2 23 -11 25 -25 3 -21 9 -23 57 -23 166 0 440 62 645 146 74 30 144
58 155 60 17 4 28 -10 65 -83 170 -331 307 -583 317 -583 18 0 25 -18 18 -49
-5 -24 -19 -35 -97 -71 -50 -23 -132 -58 -182 -76 -96 -36 -297 -96 -303 -90
-2 2 31 15 74 29 115 37 253 92 380 152 87 42 112 57 107 69 -8 22 -16 20 -83
-14 -146 -73 -299 -127 -586 -204 -216 -58 -517 -99 -541 -74 -9 9 -15 98 -20
303 -3 160 -10 331 -14 380 l-7 90 -2 -70 c0 -38 4 -211 10 -384 7 -220 7
-317 0 -324 -18 -18 -12 -42 11 -52 33 -14 35 -43 4 -55 -16 -6 -26 -17 -26
-30 0 -26 -30 -26 -37 0 -5 18 -14 20 -77 20 -66 0 -246 16 -461 41 -49 5
-100 16 -112 24 -23 16 -47 11 -76 -13 -16 -15 -18 -14 -24 6 -4 15 -18 25
-47 33 -102 26 -183 55 -370 130 -256 102 -359 155 -366 189 -4 18 -8 21 -14
12 -5 -8 -17 -11 -31 -8 -34 9 -40 -20 -9 -40 13 -9 22 -19 19 -22 -8 -9 100
-71 250 -143 142 -68 325 -138 469 -180 43 -12 80 -28 83 -36 3 -7 -5 -54 -17
-105 -67 -285 -99 -433 -95 -437 7 -7 12 12 73 279 53 234 60 255 80 258 12 2
22 10 22 18 0 8 7 14 15 14 8 0 15 -8 15 -19 0 -13 9 -20 33 -24 241 -42 362
-56 612 -70 l40 -2 9 -272 c4 -150 12 -273 17 -273 9 0 8 70 -6 406 -4 97 -2
127 11 152 17 36 44 43 44 12 0 -23 -2 -23 235 1 320 32 718 144 984 279 33
16 67 30 74 30 8 0 66 -100 133 -229 74 -142 126 -232 136 -235 13 -3 17 -13
15 -38 -3 -40 -33 -59 -242 -147 -331 -140 -657 -227 -995 -266 -129 -15 -307
-22 -316 -12 -3 2 28 8 68 11 499 44 952 163 1343 353 119 58 128 64 118 74
-6 6 -54 -12 -124 -45 -310 -146 -730 -273 -1064 -321 -127 -18 -325 -34 -341
-28 -14 5 -24 95 -25 242 -1 64 -5 159 -9 211 -5 58 -6 -12 -3 -177 4 -187 2
-273 -5 -273 -6 0 -12 -10 -14 -22 -4 -29 -25 -34 -33 -9 -6 20 -14 21 -117
21 -113 0 -535 41 -643 63 -49 10 -61 16 -63 33 -2 12 22 129 52 262 31 132
56 249 55 259 -1 18 -24 -71 -95 -374 -31 -131 -39 -153 -55 -153 -27 0 -24
-29 5 -39 13 -5 26 -18 28 -29 4 -13 17 -21 44 -25 22 -3 93 -15 159 -27 158
-27 405 -50 531 -50 84 0 103 -3 108 -16 3 -9 6 -59 7 -112 1 -53 5 -108 10
-122 5 -16 7 25 3 108 -4 113 -3 133 11 138 8 3 13 9 11 13 -3 4 -1 13 4 20 9
16 30 6 30 -15 0 -8 3 -14 8 -14 4 0 68 5 142 10 459 35 873 142 1292 336 64
30 123 54 130 54 7 0 38 -47 68 -105 34 -65 61 -106 73 -109 13 -3 18 -10 13
-21 -3 -9 -6 -25 -6 -36 0 -14 -27 -31 -107 -69 -469 -222 -990 -358 -1485
-386 -92 -5 -118 -10 -118 -21 0 -10 9 -13 33 -9 17 3 82 8 142 11 458 26
1000 169 1439 381 79 38 114 50 122 43 7 -6 77 -134 156 -284 83 -159 150
-276 159 -278 12 -3 16 -14 15 -38 -2 -33 -6 -36 -132 -100 -355 -179 -857
-337 -1290 -408 -118 -19 -358 -45 -526 -57 -49 -3 -88 -10 -88 -15 0 -13 287
8 510 37 473 63 1032 234 1452 445 43 22 82 39 88 39 5 0 23 -27 40 -60 17
-34 37 -63 45 -67 8 -3 15 -14 15 -26 0 -23 8 -38 555 -1082 261 -499 399
-751 421 -773 19 -18 34 -29 34 -24 0 21 -943 1809 -962 1823 -11 9 -18 22
-16 30 6 16 -77 177 -100 196 -8 7 -16 26 -17 42 -2 28 4 33 114 96 655 377
1256 951 1653 1581 70 111 73 114 105 111 18 -1 32 -5 31 -9 -4 -10 181 -118
202 -118 10 0 20 -7 23 -14 5 -13 768 -476 813 -493 10 -4 2 10 -19 31 -37 37
-792 494 -832 504 -11 3 -31 15 -45 27 -14 12 -44 34 -67 49 -24 14 -43 33
-43 41 0 8 26 61 57 117 113 206 230 473 317 725 26 76 41 135 35 138 -5 4
-11 0 -13 -7 -2 -7 -27 -80 -56 -163 -84 -241 -199 -499 -318 -713 -44 -79
-47 -82 -79 -80 -18 2 -33 7 -33 11 1 5 -125 84 -280 175 -154 92 -280 172
-280 178 0 6 21 49 46 95 94 170 206 426 273 627 36 108 35 102 18 102 -7 0
-25 -37 -41 -87 -48 -147 -123 -330 -207 -498 -109 -221 -113 -227 -146 -219
-16 4 -33 12 -38 19 -20 24 -263 165 -284 165 -12 0 -24 7 -27 15 -4 8 -101
72 -218 141 -116 70 -217 133 -225 140 -12 11 -6 29 41 121 67 129 135 287
173 402 22 68 25 85 14 92 -18 11 -23 4 -44 -61 -32 -101 -96 -254 -156 -374
-59 -120 -75 -146 -87 -144 -4 0 -20 0 -37 -1 l-30 -2 25 -14 c14 -8 32 -14
41 -15 8 0 24 -10 35 -22 11 -13 115 -79 232 -148 140 -82 212 -131 212 -142
0 -22 -166 -269 -264 -393 -103 -130 -449 -475 -595 -593 -119 -97 -350 -255
-463 -317 l-66 -36 -20 28 c-10 15 -65 116 -120 223 -56 108 -113 206 -127
218 -18 16 -24 29 -20 42 5 14 -3 28 -26 50 -30 26 -31 32 -21 55 7 14 26 34
43 43 17 9 91 56 163 104 332 218 606 491 824 818 42 63 78 117 79 118 1 2 18
4 37 5 20 1 36 4 36 8 0 9 -27 19 -50 19 -10 0 -27 11 -37 24 -20 27 -711 441
-720 432 -8 -7 -63 22 -63 34 0 6 -25 26 -55 45 -30 20 -55 42 -55 51 0 8 12
38 26 66 32 64 94 222 94 241 0 8 -9 17 -21 20 -11 3 -23 14 -26 25 -4 18 -29
31 -59 32 -6 0 -27 -35 -47 -77z m1653 -1317 c0 -16 259 -170 282 -168 10 0
24 -9 32 -20 8 -12 133 -91 278 -177 159 -95 264 -163 266 -174 2 -9 -43 -88
-101 -175 -294 -442 -654 -834 -1058 -1148 -245 -191 -649 -444 -675 -423 -7
6 -74 128 -149 272 -75 144 -148 272 -162 283 -14 12 -23 28 -20 35 7 21 -133
287 -155 292 -15 4 -17 11 -12 34 10 40 4 34 111 98 279 165 496 336 739 579
203 204 310 333 456 553 97 144 103 151 135 151 19 0 33 -5 33 -12z m-1804
-791 c-6 -22 -25 -35 -109 -75 -122 -59 -276 -117 -409 -154 -146 -42 -140
-26 7 23 235 77 499 195 490 219 -7 20 5 36 17 24 6 -6 8 -22 4 -37z"/>
<path d="M9220 4314 c-52 -80 -141 -205 -199 -277 -123 -157 -402 -438 -556
-561 -125 -100 -368 -265 -480 -326 -78 -44 -90 -54 -80 -69 13 -22 378 212
570 365 141 112 456 427 569 569 112 140 300 421 291 434 -3 6 -9 11 -13 10
-4 0 -50 -66 -102 -145z"/>
<path d="M7825 5850 c3 -5 13 -10 21 -10 8 0 19 -11 23 -24 7 -16 22 -27 53
-34 24 -7 64 -18 91 -26 26 -8 47 -11 47 -7 0 5 -9 11 -21 14 -11 3 -23 14
-26 25 -3 14 -27 26 -91 46 -96 29 -106 31 -97 16z"/>
<path d="M1795 5810 c-159 -21 -301 -40 -315 -42 -23 -5 -23 -5 5 -7 38 -1
656 76 663 84 10 10 -65 3 -353 -35z"/>
<path d="M1055 5775 c-5 -2 -50 -9 -100 -14 -120 -13 -881 -109 -924 -117 -18
-3 -31 -8 -28 -10 8 -8 1090 128 1102 138 9 8 -30 10 -50 3z"/>
<path d="M4395 5748 c-95 -33 -101 -35 -93 -43 7 -7 188 56 188 66 0 5 -1 9
-2 8 -2 0 -43 -14 -93 -31z"/>
<path d="M1120 5741 c-13 -17 -84 -28 -515 -80 -512 -63 -551 -68 -543 -77 3
-2 241 25 528 61 424 53 526 63 536 53 6 -7 17 -49 23 -93 46 -307 166 -785
198 -785 7 0 19 -11 25 -25 13 -30 28 -33 28 -6 0 16 17 25 84 47 47 15 83 31
80 35 -2 4 -38 -4 -79 -18 -42 -14 -82 -23 -89 -20 -33 13 -148 492 -187 785
-9 63 -17 92 -26 92 -7 0 -13 5 -13 11 0 10 -24 39 -32 39 -2 -1 -10 -9 -18
-19z m70 -144 c7 -48 10 -91 7 -94 -7 -6 -13 19 -27 107 -12 81 -13 97 -1 85
4 -6 14 -50 21 -98z"/>
<path d="M1278 5747 c-43 -6 -78 -14 -78 -20 0 -5 10 -7 23 -4 12 3 54 9 92
12 39 4 77 11 85 16 19 11 -17 9 -122 -4z"/>
<path d="M4712 5658 c-41 -22 -71 -42 -69 -45 8 -7 147 66 147 77 0 6 -1 9 -2
9 -2 -1 -36 -19 -76 -41z"/>
<path d="M4756 5604 c-37 -19 -66 -38 -63 -40 5 -6 147 63 147 71 0 10 -16 4
-84 -31z"/>
<path d="M7453 5599 c33 -33 150 -109 168 -109 19 0 -56 67 -117 103 -75 45
-93 47 -51 6z"/>
<path d="M3935 5255 c-192 -101 -354 -186 -360 -188 -5 -2 -8 -7 -5 -10 6 -6
704 353 723 372 6 6 7 11 2 10 -6 0 -167 -83 -360 -184z"/>
<path d="M2941 5335 c-139 -46 -258 -89 -265 -95 -14 -15 -33 -21 294 89 146
49 256 90 245 90 -11 0 -134 -38 -274 -84z"/>
<path d="M3263 5412 c-6 -4 -12 -16 -14 -27 -3 -16 -48 -34 -249 -100 -272
-89 -285 -94 -278 -100 2 -3 111 31 241 74 316 106 293 102 316 49 106 -251
117 -274 156 -315 27 -28 45 -39 54 -34 10 7 7 20 -15 62 -15 30 -53 119 -85
198 -42 107 -63 147 -78 153 -12 4 -21 14 -21 22 0 19 -13 27 -27 18z"/>
<path d="M5911 5189 c-42 -188 -39 -179 -61 -179 -14 0 -21 -11 -28 -42 -8
-39 -7 -44 14 -52 13 -5 24 -19 26 -30 3 -18 14 -23 78 -33 41 -6 100 -12 131
-12 30 -1 60 -6 67 -13 7 -7 12 -38 12 -69 0 -32 5 -61 10 -64 6 -4 10 20 10
64 0 43 4 71 11 71 6 0 9 19 7 48 -3 40 -6 47 -25 50 -13 2 -23 12 -25 25 -2
17 -14 23 -73 34 -38 7 -91 11 -117 7 -40 -5 -49 -3 -54 11 -4 10 8 82 25 161
18 79 31 148 29 155 -2 6 -19 -53 -37 -132z"/>
<path d="M6190 5134 c0 -95 5 -176 10 -184 7 -10 8 45 4 165 -4 99 -8 182 -10
184 -2 2 -4 -72 -4 -165z"/>
<path d="M2640 5200 c0 -47 199 -500 220 -500 7 0 10 -14 8 -37 -3 -38 -4 -39
-125 -102 -68 -34 -123 -67 -123 -72 0 -5 56 20 123 56 68 36 130 65 139 65 8
0 25 -19 38 -42 90 -164 242 -386 374 -546 44 -53 160 -178 258 -276 98 -99
178 -184 178 -189 0 -13 -190 -237 -201 -237 -15 0 -200 173 -295 276 -220
240 -423 521 -569 789 -21 39 -44 75 -51 80 -7 6 -14 26 -16 45 l-3 33 123 65
c68 35 121 66 119 69 -3 2 -59 -23 -126 -56 -66 -34 -125 -61 -129 -61 -16 0
-125 251 -188 429 -12 34 -26 56 -40 61 -12 5 -24 18 -27 29 -7 28 -25 27 -29
-1 -3 -21 -36 -34 -318 -127 -173 -57 -317 -105 -319 -107 -20 -19 48 1 323
92 175 58 322 102 326 97 5 -4 37 -78 71 -163 64 -162 142 -326 157 -332 15
-5 22 -65 9 -76 -7 -5 -146 -78 -309 -163 -163 -84 -294 -157 -292 -161 3 -4
15 -2 27 6 12 8 150 80 307 161 l284 147 19 -23 c10 -13 50 -77 88 -142 186
-312 458 -648 728 -897 56 -52 101 -99 101 -105 0 -6 -44 -63 -97 -126 -54
-63 -155 -183 -226 -267 -70 -84 -131 -152 -135 -152 -5 0 -64 51 -133 113
-337 308 -686 756 -904 1162 -26 50 -55 96 -63 102 -19 16 -25 68 -9 81 6 5
140 76 297 157 157 81 289 151 295 156 26 25 -35 -4 -310 -146 -283 -147 -300
-154 -316 -138 -32 35 -239 531 -239 573 0 6 -7 10 -15 10 -9 0 -21 11 -27 25
-14 31 -20 31 -33 3 -7 -15 -32 -29 -85 -46 -80 -26 -86 -29 -78 -37 2 -3 38
6 78 20 40 14 80 25 87 25 15 0 12 6 89 -190 71 -182 183 -420 199 -420 6 0
11 -16 12 -35 1 -33 -2 -36 -78 -77 -43 -24 -79 -46 -79 -51 0 -4 36 11 81 34
45 22 87 38 95 35 7 -3 23 -24 35 -48 33 -64 134 -229 213 -348 180 -271 358
-483 643 -768 198 -197 223 -226 211 -240 -7 -9 -37 -45 -65 -80 -29 -34 -53
-65 -53 -69 0 -11 47 37 92 94 37 47 47 53 71 49 26 -5 37 7 17 19 -5 3 -10
10 -10 15 0 7 398 488 446 540 12 12 18 12 34 3 14 -10 21 -10 26 -1 4 7 2 14
-4 16 -7 2 -12 11 -12 19 0 19 188 243 204 243 7 0 17 -5 23 -11 17 -17 26 7
11 30 -10 16 -9 23 3 38 9 10 89 106 179 213 89 107 170 204 179 214 9 10 11
17 4 15 -12 -4 -133 -144 -292 -337 -49 -59 -92 -102 -102 -102 -28 0 -303
280 -423 430 -120 150 -249 339 -324 475 -28 50 -61 103 -73 119 -13 16 -24
36 -25 45 -1 9 -27 71 -58 138 -30 67 -74 174 -98 237 -30 81 -48 116 -61 120
-10 2 -21 14 -24 25 -5 21 -33 30 -33 11z"/>
<path d="M1935 5003 c-176 -58 -322 -107 -324 -109 -21 -19 50 1 334 96 180
60 330 112 333 115 15 14 -49 -4 -343 -102z"/>
<path d="M6831 5041 c-1 -23 80 -161 94 -161 8 0 17 -9 20 -20 3 -11 11 -20
17 -20 12 0 13 -3 -37 93 -22 42 -45 77 -51 77 -6 0 -19 10 -27 23 -10 13 -16
17 -16 8z"/>
<path d="M5765 4830 c-10 -44 -16 -83 -13 -85 3 -3 13 27 23 67 9 40 18 79 21
86 2 6 0 12 -5 12 -4 0 -16 -36 -26 -80z"/>
<path d="M6825 4835 c-38 -19 -77 -34 -85 -35 -8 0 -107 -25 -220 -55 -113
-30 -226 -55 -252 -55 l-48 0 -1 38 c-1 20 -5 51 -9 67 -6 23 -8 15 -9 -37 0
-38 -5 -68 -11 -68 -5 0 -10 -18 -10 -39 0 -33 4 -40 23 -43 14 -2 23 -11 25
-27 4 -24 5 -24 91 -18 184 13 413 72 584 150 42 20 77 40 77 46 0 21 -24 61
-37 61 -7 0 -19 11 -25 25 -6 14 -14 25 -17 24 -3 0 -37 -16 -76 -34z"/>
<path d="M5815 4780 c-10 -44 -16 -83 -13 -85 3 -3 13 27 23 67 9 40 18 79 21
86 2 6 0 12 -5 12 -4 0 -16 -36 -26 -80z"/>
<path d="M8620 4778 c-219 -357 -589 -719 -957 -936 -106 -63 -127 -82 -103
-97 19 -12 252 135 415 263 249 194 462 424 647 701 57 86 74 119 66 128 -6 7
-13 13 -17 13 -3 0 -26 -33 -51 -72z"/>
<path d="M1106 4730 c-114 -37 -213 -74 -220 -81 -8 -9 -8 -11 4 -7 8 3 107
36 220 73 178 59 250 87 215 84 -6 0 -104 -31 -219 -69z"/>
<path d="M5208 4728 c-36 -59 -50 -73 -69 -72 -42 2 -66 -49 -29 -61 11 -3 20
-12 20 -20 0 -27 250 -147 420 -201 47 -15 88 -30 92 -33 4 -4 -32 -177 -81
-386 -48 -209 -86 -382 -84 -384 1 -2 5 -2 7 0 3 2 43 170 90 372 47 202 88
372 91 377 3 6 13 10 20 10 16 0 31 43 20 59 -3 6 -13 11 -21 11 -8 0 -19 11
-24 24 -6 16 -20 27 -42 31 -18 4 -78 26 -133 50 -55 23 -131 52 -170 65 -76
24 -135 56 -135 72 0 5 19 41 41 79 56 93 44 99 -13 7z"/>
<path d="M1160 4679 c-244 -82 -234 -78 -229 -84 6 -6 431 133 443 145 16 16
2 12 -214 -61z"/>
<path d="M4850 4273 c-113 -185 -209 -343 -214 -351 -5 -9 -4 -13 3 -11 6 2
101 153 212 334 229 376 222 365 212 365 -4 0 -100 -152 -213 -337z"/>
<path d="M6161 4503 c0 -63 3 -103 9 -103 11 0 11 56 0 145 -7 56 -7 53 -9
-42z"/>
<path d="M5751 4501 c-12 -51 -20 -95 -17 -98 8 -9 50 161 44 179 -3 7 -15
-29 -27 -81z"/>
<path d="M5019 4417 c-47 -78 -143 -235 -212 -349 -70 -115 -123 -208 -118
-208 4 0 98 147 207 327 227 373 227 373 217 373 -4 0 -47 -64 -94 -143z"/>
<path d="M5705 4299 c-10 -28 -175 -750 -175 -766 0 -9 2 -14 4 -12 8 7 185
783 181 787 -3 3 -7 -1 -10 -9z"/>
<path d="M6177 4035 c3 -154 9 -341 13 -415 5 -85 6 -19 3 180 -3 173 -9 360
-13 415 -5 61 -6 -9 -3 -180z"/>
<path d="M1768 4134 c-49 -26 -88 -50 -88 -56 0 -5 41 12 90 38 50 25 90 50
90 55 0 12 7 15 -92 -37z"/>
<path d="M1345 3914 c-296 -154 -291 -152 -284 -159 5 -4 558 280 574 296 24
24 -30 -2 -290 -137z"/>
<path d="M1400 3865 c-151 -79 -279 -146 -285 -148 -5 -2 -8 -7 -5 -10 5 -6
557 276 574 293 24 24 -25 1 -284 -135z"/>
<path d="M4059 3827 c-235 -280 -244 -290 -232 -286 7 2 90 97 185 210 216
256 202 239 192 239 -5 0 -70 -73 -145 -163z"/>
<path d="M10270 3881 c0 -5 -58 -97 -129 -203 -205 -306 -380 -517 -642 -773
-318 -310 -613 -531 -1031 -769 -81 -45 -53 -51 30 -5 685 374 1338 998 1751
1672 42 69 48 87 31 87 -5 0 -10 -4 -10 -9z"/>
<path d="M4533 3748 c-40 -52 -295 -479 -289 -485 5 -6 0 -14 170 266 75 123
135 225 133 228 -2 2 -9 -2 -14 -9z"/>
<path d="M4564 3668 c-106 -168 -274 -451 -270 -455 5 -6 8 -2 180 281 70 114
125 210 122 213 -2 3 -17 -15 -32 -39z"/>
<path d="M3686 3385 c-53 -63 -92 -115 -87 -115 12 0 195 219 189 226 -3 3
-49 -47 -102 -111z"/>
<path d="M5457 3493 c-4 -3 -7 -16 -6 -27 0 -19 1 -19 10 3 10 24 8 36 -4 24z"/>
<path d="M6197 3423 c-11 -10 -8 -43 3 -43 6 0 10 11 10 25 0 26 -2 29 -13 18z"/>
<path d="M3328 2959 c-125 -148 -223 -269 -218 -269 5 0 103 111 217 248 242
288 237 281 232 287 -3 2 -107 -117 -231 -266z"/>
<path d="M4050 2911 c0 -5 9 -12 19 -16 11 -3 22 -14 25 -23 10 -31 332 -199
560 -293 124 -51 425 -152 488 -164 21 -4 41 -12 46 -19 6 -7 -19 -130 -64
-326 -40 -173 -73 -322 -73 -330 1 -38 23 46 84 315 70 308 78 335 96 335 7 0
21 8 31 17 18 16 19 16 25 -5 6 -25 6 -25 143 -51 177 -33 345 -52 575 -64
l220 -12 8 -220 c4 -121 11 -272 16 -335 l8 -115 1 90 c1 50 -3 198 -8 330 -8
218 -7 242 8 258 16 18 16 20 -2 33 -13 9 -23 10 -31 4 -8 -6 -63 -7 -151 -2
l-139 7 140 5 c201 7 180 24 -40 31 -307 11 -718 62 -737 92 -4 7 -6 19 -3 27
17 59 54 234 50 238 -6 7 -10 -5 -40 -138 -24 -106 -28 -117 -56 -133 -32 -18
-49 -15 -49 7 0 8 -16 17 -37 21 -221 41 -786 268 -1031 414 -53 31 -82 39
-82 22z"/>
<path d="M3952 2798 c-165 -266 -292 -483 -289 -491 1 -5 85 127 186 293 101
165 181 303 178 306 -3 3 -36 -46 -75 -108z"/>
<path d="M3903 2583 c-188 -308 -196 -323 -190 -329 2 -2 86 131 187 296 100
166 180 303 177 306 -3 3 -81 -120 -174 -273z"/>
<path d="M7870 2760 c-135 -67 -275 -126 -380 -162 -209 -71 -525 -153 -727
-188 -156 -27 -452 -55 -464 -43 -5 5 -13 67 -17 138 l-9 130 -2 -132 c0 -75
-5 -134 -11 -138 -15 -9 -12 -35 6 -42 8 -3 25 -1 37 5 12 5 90 15 172 22 302
24 634 92 938 194 221 74 576 230 577 254 0 19 -9 16 -120 -38z"/>
<path d="M5286 2759 c-14 -38 -66 -283 -61 -287 6 -7 9 2 44 157 17 74 29 136
26 139 -2 3 -7 -1 -9 -9z"/>
<path d="M3007 2580 c-60 -72 -70 -79 -88 -69 -11 6 -24 7 -27 3 -4 -4 -1 -9
6 -11 6 -3 12 -12 12 -22 0 -10 -115 -154 -255 -320 -141 -167 -254 -306 -251
-308 6 -6 9 -3 286 327 122 146 228 268 235 272 8 5 39 -14 81 -49 94 -77 270
-207 381 -281 50 -34 94 -66 98 -72 3 -5 -102 -188 -235 -406 -133 -218 -239
-398 -236 -401 6 -6 27 28 280 445 l209 344 30 -6 c16 -3 35 -12 41 -19 11
-13 104 -67 266 -155 271 -146 684 -307 1040 -405 78 -21 85 -25 84 -47 0 -14
-40 -194 -88 -400 -47 -206 -85 -381 -83 -390 2 -8 8 8 15 35 6 28 47 205 92
395 44 190 80 348 80 352 0 7 58 38 72 38 4 0 8 -6 8 -14 0 -9 33 -20 103 -35
289 -60 644 -97 977 -104 l115 -2 6 -130 c4 -71 10 -246 14 -388 4 -142 11
-255 15 -250 3 4 2 175 -5 378 -10 323 -9 372 4 388 13 15 12 19 -5 32 -23 18
-34 19 -34 4 0 -19 -454 -4 -631 20 -174 24 -320 48 -327 56 -8 7 15 6 83 -5
209 -33 875 -65 875 -43 0 7 -86 12 -237 16 -259 5 -542 32 -772 73 -159 28
-184 37 -177 62 5 19 20 81 31 127 4 19 3 26 -3 20 -5 -5 -17 -43 -27 -82 -15
-63 -21 -75 -48 -88 -37 -18 -37 -18 -37 0 0 8 -16 18 -37 24 -21 5 -67 17
-103 26 -125 32 -352 106 -473 154 -398 160 -767 340 -767 376 0 8 19 45 41
82 23 38 43 71 46 76 2 4 1 7 -4 7 -4 0 -26 -30 -47 -66 -54 -91 -60 -96 -94
-81 -15 6 -29 14 -32 18 -3 3 -39 28 -80 54 -187 119 -470 331 -470 352 0 8
27 46 60 85 51 61 69 88 58 88 -2 0 -34 -36 -71 -80z"/>
<path d="M2819 2467 c-259 -305 -469 -560 -465 -565 4 -3 7 -3 9 -1 2 2 77 92
167 199 363 432 346 410 334 410 -5 -1 -25 -20 -45 -43z"/>
<path d="M5177 2029 c-43 -187 -76 -343 -74 -346 7 -6 8 -4 87 342 39 171 73
318 76 328 3 9 2 17 -3 17 -4 0 -43 -153 -86 -341z"/>
<path d="M6280 2199 c1 -41 5 -186 9 -324 8 -210 7 -253 -5 -266 -12 -14 -12
-18 5 -34 18 -15 22 -16 35 -3 10 11 50 17 140 22 339 18 777 102 1131 216
261 84 745 292 745 319 0 16 -1 15 -110 -39 -463 -232 -1091 -413 -1615 -464
-234 -23 -283 -25 -294 -12 -5 6 -14 154 -20 330 -5 175 -12 321 -15 324 -4 3
-6 -28 -6 -69z"/>
<path d="M3572 2173 c-29 -47 -50 -88 -48 -91 4 -4 36 43 95 141 12 20 19 37
14 37 -4 0 -32 -39 -61 -87z"/>
<path d="M3310 1609 c-135 -221 -247 -407 -249 -413 -2 -6 3 -4 12 4 24 24
488 792 485 802 -2 5 -114 -172 -248 -393z"/>
<path d="M5037 1683 c-2 -4 -12 -39 -21 -78 -27 -115 -28 -121 -18 -110 10 11
54 187 48 193 -2 2 -6 0 -9 -5z"/>
<path d="M6252 1495 c0 -44 4 -93 8 -110 5 -21 8 -2 8 60 0 50 -3 99 -8 110
-6 13 -8 -7 -8 -60z"/>
<path d="M6301 1468 c1 -29 4 -78 9 -108 6 -48 7 -42 9 53 0 65 -3 107 -9 107
-6 0 -10 -24 -9 -52z"/>
<path d="M5026 1380 c-27 -106 -186 -805 -186 -818 0 -8 2 -13 4 -11 9 9 197
831 193 842 -3 7 -7 1 -11 -13z"/>
<path d="M6315 1110 c15 -556 19 -651 28 -657 6 -3 7 17 3 53 -3 33 -8 190
-12 349 -3 160 -10 319 -15 355 -5 45 -7 14 -4 -100z"/>
</g>
</svg>
