<?xml version="1.0" standalone="no"?><!DOCTYPE svg PUBLIC "-//W3C//DTD SVG 1.1//EN" "http://www.w3.org/Graphics/SVG/1.1/DTD/svg11.dtd"><svg class="icon" height="512" viewBox="0 0 1429 1024" version="1.1" xmlns="http://www.w3.org/2000/svg"><path d="M922.779 112.986c-137.466-213.573-396.066-158.941-396.066-158.941h-40.699v749.561h93.019v-381.332c42.603-31.738 109.827-59.18 196.587-21.726 280.036 125.906 402.247-159.114 402.247-159.114s-183.26 65.415-255.093-28.452z" fill="" /><path d="M594.776 498.031c-137.466-213.573-396.063-158.941-396.063-158.941h-40.699v749.563h93.019v-381.337c42.601-31.733 109.827-59.174 196.587-21.725 280.036 125.906 402.247-159.11 402.247-159.11s-183.26 65.414-255.092-28.452z" fill="" /><path d="M1122.429 505.165c-137.466-213.573-396.066-158.941-396.066-158.941h-40.699v749.563h93.021v-381.337c42.599-31.733 109.826-59.174 196.587-21.725 280.035 125.906 402.247-159.11 402.247-159.11s-183.26 65.414-255.093-28.452z" fill="" /></svg>